<?xml version="1.0" standalone="no"?>
<!DOCTYPE svg PUBLIC "-//W3C//DTD SVG 1.1//EN" "http://www.w3.org/Graphics/SVG/1.1/DTD/svg11.dtd" >
<!--
2013-9-30: Created.
-->
<svg>
<metadata>
Created by iconfont
</metadata>
<defs>

<font id="iconfont" horiz-adv-x="1024" >
  <font-face
    font-family="iconfont"
    font-weight="500"
    font-stretch="normal"
    units-per-em="1024"
    ascent="896"
    descent="-128"
  />
    <missing-glyph />
    
    <glyph glyph-name="zuanshi" unicode="&#983550;" d="M321.214785 504.1998l455.224775 2.045954-218.917083-550.361638zM373.386613 703.68032l346.789211-3.068931 61.378621-134.00999-450.10989 3.068931zM274.157842 573.762238l-274.157842 114.573427 147.308691 109.458541 175.952048-91.044955zM0 621.842158l259.836164-115.596404 279.272727-546.26973zM841.91009 507.268731l243.468531 125.826174-512.511489-670.04995zM836.795205 574.785215l-68.539461 141.170829 156.515485 86.953047 135.032967-113.55045zM368.271728 771.196803l-59.332667 15.344655-111.504496 62.401598 130.941059 47.056943 427.604396 0 129.918082-54.217782-124.803197-60.355644-41.942058-10.22977-350.881119 0z"  horiz-adv-x="1086" />

    
    <glyph glyph-name="user" unicode="&#58896;" d="M535.273 814.182c-257.071 0-465.455-208.384-465.455-465.455s208.384-465.455 465.455-465.455c257.071 0 465.455 208.384 465.455 465.455 0 257.071-208.384 465.455-465.455 465.455zM254.185 38.735c43.846 113.012 152.576 193.629 281.088 193.629 128.512 0 237.242-80.617 281.088-193.583-74.38-67.491-172.777-108.963-281.088-108.963-108.311 0-206.708 41.472-281.088 108.916zM395.636 418.545c0 77.126 62.511 139.636 139.636 139.636 77.126 0 139.636-62.511 139.636-139.636s-62.511-139.636-139.636-139.636c-77.126 0-139.636 62.511-139.636 139.636zM851.503 74.528c-41.146 89.786-118.365 159.279-213.876 188.695 50.455 33.28 83.828 90.345 83.828 155.322 0 102.819-83.363 186.182-186.182 186.182-102.819 0-186.182-83.363-186.182-186.182 0-64.977 33.373-122.042 83.875-155.369-95.511-29.37-172.73-98.863-213.876-188.695-63.86 73.542-102.726 169.239-102.726 274.246 0 231.377 187.532 418.909 418.909 418.909 231.377 0 418.909-187.532 418.909-418.909 0-105.007-38.912-200.704-102.679-274.199z"  horiz-adv-x="1024" />

    
    <glyph glyph-name="zuanshi1" unicode="&#58956;" d="M511.245312-43.232384c-20.50808 0-40.075741 10.344602-53.634548 28.423353L83.065346 484.489692c-24.439622 32.577976-25.654286 84.488253-2.77009 118.189819l107.59553 155.599847c20.468171 30.122041 65.898873 52.955072 105.570407 52.955072l435.32469 0c39.682791 0 85.140099-22.806425 105.72595-53.05945L941.83414 601.868029c23.224957-34.092469 22.050202-84.566024-2.638083-117.509321L564.617893-14.964574C551.163463-32.938947 531.700179-43.232384 511.245312-43.232384zM293.461193 757.72882c-21.971407 0-50.682309-13.871939-61.445444-29.703509L124.420219 572.425464c-9.992585-14.734586-9.365298-41.433668 1.436722-55.828516l374.572024-499.298723c6.687306-8.933463 14.70798-9.06547 21.395286-0.182149l374.578164 499.349889c10.842952 14.47262 11.44261 40.257889 1.280156 55.20123L790.336728 727.998705c-10.816347 15.883759-39.527249 29.730115-61.549821 29.730115L293.461193 757.72882zM935.799704 530.338926 119.874693 530.338926c-7.380084 0-13.375635 5.983271-13.375635 13.375635s5.995551 13.375635 13.375635 13.375635l815.925011 0c7.393387 0 13.374612-5.983271 13.374612-13.375635S943.193091 530.338926 935.799704 530.338926zM489.926774 535.432944c-3.213181 0-6.426363 1.149173-9.013281 3.500731L233.765603 764.547109c-5.447059 4.964058-5.838985 13.428847-0.861624 18.888186s13.441127 5.852288 18.901489 0.862647l247.160169-225.614457c5.460362-4.989641 5.825682-13.45443 0.862647-18.888186C497.188154 536.896272 493.557464 535.432944 489.926774 535.432944zM523.679505 535.432944c-3.63069 0-7.235798 1.463328-9.873882 4.362354-4.990664 5.433756-4.597715 13.898545 0.862647 18.888186l131.433448 119.965256c5.459339 4.989641 13.923104 4.597715 18.888186-0.861624 4.988618-5.459339 4.596691-13.924127-0.862647-18.888186l-131.433448-119.965256C530.133497 536.582117 526.89371 535.432944 523.679505 535.432944zM689.493995 686.773791c-3.631714 0-7.236821 1.463328-9.874905 4.336772-4.989641 5.460362-4.597715 13.924127 0.86367 18.913768l9.299807 8.491395c5.460362 4.963035 13.924127 4.597715 18.888186-0.836041 4.989641-5.460362 4.597715-13.924127-0.836041-18.913768l-9.325389-8.490372C695.946964 687.923988 692.733782 686.773791 689.493995 686.773791zM730.980875 724.655564c-3.631714 0-7.236821 1.462305-9.874905 4.362354-4.989641 5.433756-4.597715 13.898545 0.861624 18.888186l39.841404 36.391838c5.485945 4.989641 13.924127 4.597715 18.914792-0.862647 4.963035-5.460362 4.596691-13.924127-0.862647-18.888186l-39.866986-36.390815C737.433844 725.804736 734.194056 724.655564 730.980875 724.655564zM315.988256 490.080014c-5.348821 0-10.390651 3.213181-12.45466 8.490372l-16.080234 40.257889c-2.690272 6.871501 0.705058 14.630209 7.576559 17.347087 6.909363 2.690272 14.655791-0.731664 17.327644-7.602142l16.092513-40.257889c2.690272-6.871501-0.705058-14.630209-7.576559-17.320481C319.252603 490.367563 317.607126 490.080014 315.988256 490.080014zM333.700663 444.832484c-5.355985 0-10.398838 3.213181-12.462846 8.490372l-4.702092 11.965519c-2.691295 6.871501 0.705058 14.629185 7.575536 17.320481 6.897084 2.716878 14.656815-0.705058 17.347087-7.549953l4.676509-11.964496c2.716878-6.897084-0.679475-14.655791-7.576559-17.347087C336.966033 445.119009 335.319533 444.832484 333.700663 444.832484zM511.114328-8.510582c-5.329379 0-10.397814 3.212158-12.461823 8.490372L339.265402 407.23826c-2.690272 6.870478 0.705058 14.629185 7.575536 17.320481 6.870478 2.716878 14.655791-0.705058 17.347087-7.576559l159.388127-407.259494c2.690272-6.869455-0.705058-14.629185-7.575536-17.321504C514.378675-8.224056 512.734222-8.510582 511.114328-8.510582zM511.114328-8.510582c-1.594311 0-3.239787 0.286526-4.833075 0.887206-6.871501 2.663666-10.29446 10.423397-7.628748 17.320481l206.595288 532.972661c2.664689 6.89606 10.425444 10.31902 17.294898 7.65433 6.89606-2.664689 10.31902-10.42442 7.653307-17.320481L523.601734 0.030955C521.537725-5.272841 516.470313-8.510582 511.114328-8.510582z"  horiz-adv-x="1024" />

    
    <glyph glyph-name="icon03" unicode="&#58882;" d="M634.65472 314.08128c92.89728 45.48608 157.02016 140.65664 157.02016 251.04384C791.67488 719.58528 666.46016 844.8 512 844.8c-154.46016 0-279.67488-125.21472-279.67488-279.67488 0-110.3872 64.12288-205.57824 157.02016-251.04384-154.15296-49.37728-270.25408-188.7232-282.46016-357.56032-1.2288-17.12128 11.63264-31.98976 28.75392-33.23904 17.24416-1.20832 31.98976 11.65312 33.23904 28.75392C181.80096 131.09248 332.53376 271.36 512 271.36s330.19904-140.26752 343.1424-319.32416c1.18784-16.36352 14.82752-28.83584 30.96576-28.83584 0.75776 0 1.51552 0.02048 2.27328 0.08192 17.12128 1.2288 29.98272 16.11776 28.75392 33.23904C904.92928 125.35808 788.82816 264.704 634.65472 314.08128zM294.48192 565.12512c0 120.13568 97.3824 217.51808 217.51808 217.51808 120.13568 0 217.51808-97.3824 217.51808-217.51808S632.13568 347.60704 512 347.60704C391.86432 347.60704 294.48192 444.98944 294.48192 565.12512z"  horiz-adv-x="1024" />

    
    <glyph glyph-name="fenxiang3" unicode="&#59070;" d="M449.183193 93.321681l67.63563 1.032605-1.548908 10.842353c-0.516303 4.646723-6.19563 47.671933 1.032605 106.53042 6.711933 55.24437 25.126723 136.820168 78.305882 212.544538 74.863866 106.53042 198.776471 180.361681 368.295798 220.289076l-128.043025-202.390588 57.30958-36.313277L1088.021513 715.122017 753.973782 896l-32.354958-59.37479 230.443025-124.94521C762.750924 668.482689 623.865546 584.497479 538.847731 462.650084c-121.331092-174.16605-91.213445-359.518655-91.213445-361.067563L449.183193 93.321681zM967.550924-45.563697c0-10.842353-9.809748-19.447395-21.512605-19.447395l-860.504202 0c-11.702857 0-21.512605 8.777143-21.512605 19.447395L64.021513 617.368739c0 10.842353 9.809748 19.447395 21.512605 19.447395l211.511933 0 0 63.50521L85.534118 700.321345c-47.15563 0-85.534118-37.345882-85.534118-82.952605l0-662.244034c0-46.123025 38.378487-82.952605 85.534118-82.952605l860.504202 0c47.15563 0 85.534118 37.345882 85.534118 82.952605L1031.572437 192.623866l-63.50521 0 0-238.187563L967.550924-45.563697z"  horiz-adv-x="1252" />

    
    <glyph glyph-name="fenxiang31" unicode="&#58943;" d="M778.602987 242.274138c-43.735084 0-82.508155-20.923542-107.114576-53.234435l-283.026028 168.531368c3.213181 12.398378 5.100158 25.314549 5.100158 38.715767 0 3.89061-0.302899 7.686053-0.573051 11.494799l283.161105 170.612773c24.713868-28.935006 61.412698-47.344285 102.452393-47.344285 74.43427 0 134.771473 60.338227 134.771473 134.76738 0 74.42506-60.338227 134.763286-134.771473 134.763286-74.424037 0-134.759193-60.334133-134.759193-134.763286 0-14.767332 2.445702-28.916587 6.837732-42.222637L369.926214 478.01421c-27.26497 43.37795-75.391061 72.290443-130.376373 72.290443-85.053118 0-154.017816-68.959581-154.017816-154.017816s68.963675-154.012699 154.017816-154.012699c45.589314 0 86.426395 19.925818 114.624621 51.3976L648.347364 141.523503c-2.829442-10.872628-4.490268-22.23235-4.490268-34.012651 0-74.43427 60.34232-134.76738 134.76738-134.76738 74.429153 0 134.763286 60.33311 134.763286 134.76738C913.388786 181.940005 853.037257 242.274138 778.602987 242.274138L778.602987 242.274138 778.602987 242.274138zM778.602987 242.274138"  horiz-adv-x="1024" />

    
    <glyph glyph-name="ico-vip-on" unicode="&#58923;" d="M704.941 438.346c-25.445 0-46.156-20.712-46.156-46.155 0-25.445 20.712-46.156 46.156-46.156s46.156 20.712 46.156 46.156c0 25.443-20.712 46.155-46.156 46.155zM510.238 832.508c-246.582 0-447.185-200.603-447.185-447.185s200.603-447.185 447.185-447.185 447.185 200.603 447.185 447.185-200.603 447.185-447.185 447.185zM446.98 443.167l-67.549-187.352c-2.356-6.559-8.497-11.005-15.473-11.182h-0.419c-6.801 0-12.964 4.072-15.605 10.389l-78.357 187.352c-3.588 8.606 0.463 18.511 9.090 22.121 8.495 3.544 18.511-0.463 22.121-9.090l61.585-147.271 52.825 146.479c3.125 8.805 12.876 13.295 21.614 10.17 8.804-3.149 13.338-12.833 10.169-21.615zM546.027 264.926c0-9.333-7.571-16.904-16.904-16.904-9.333 0-16.904 7.571-16.904 16.904v187.176c0 9.333 7.571 16.904 16.904 16.904 9.333 0 16.904-7.571 16.904-16.904v-187.176zM704.941 312.226c-17.609 0-33.898 5.736-47.124 15.419v-62.72c0-9.333-7.571-16.904-16.904-16.904-9.333 0-16.904 7.571-16.904 16.904v187.177c0 9.333 7.571 16.904 16.904 16.904 7.867 0 14.463-5.389 16.347-12.669 13.323 9.93 29.828 15.816 47.681 15.816 44.087 0 79.964-35.877 79.964-79.963 0-44.087-35.877-79.964-79.964-79.964z"  horiz-adv-x="1024" />

    
    <glyph glyph-name="gerenzhongxin" unicode="&#58910;" d="M660.563508 186.406148C700.821155 204.993188 737.070629 230.920532 767.850222 262.485562 833.346383 329.849972 873.859515 422.687792 873.859515 524.910776 873.859515 627.102256 833.346383 719.749623 767.850222 787.041004 702.173966 854.444078 611.700362 896 512.108895 896 412.370838 896 321.897235 854.444078 256.401074 787.152697 190.801603 720.084705 150.287076 627.398676 150.287076 524.910776 150.287076 422.424307 190.801603 329.625152 256.183285 262.485562 287.000572 230.914803 323.282156 204.993188 363.539803 186.406148 285.577957 161.418181 215.77765 117.396398 159.32955 59.60331 108.094447 6.866525 67.977803-56.834892 42.744876-127.829362L120.968218-127.829362C141.282723-82.346965 180.873703-30.439172 214.860115 4.571191 288.776093 80.203827 406.132572 140.262861 518.95897 140.262861 631.753259 140.262861 743.251792 80.203827 817.130077 4.571191 851.193273-30.439172 885.353781-82.346965 905.738089-127.829362L981.255124-127.829362C956.202291-56.834892 916.12474 6.866525 864.921747 59.418585 808.363355 117.396398 738.603536 161.418181 660.563508 186.406148ZM223.806756 529.52834C223.806756 610.237323 260.556634 683.013949 312.023262 735.803484 371.569912 797.135526 439.065316 820.74171 517.988713 820.74171 596.793616 820.74171 668.09857 783.511145 719.606216 730.685771 771.191336 677.688995 802.974589 604.674299 802.974589 523.758077 802.974589 442.849648 771.191336 369.626155 719.802183 316.922318 667.980077 264.011241 596.634108 220.121574 517.988713 220.121574 439.302301 220.121574 363.649399 258.180176 312.023262 311.097484 260.556634 363.966488 223.806756 442.971181 223.806756 523.758074L223.806756 529.52834Z"  horiz-adv-x="1024" />

    
    <glyph glyph-name="iconfontzhizuobiaozhun22" unicode="&#58901;" d="M936.831196-27.623895l-204.41053 204.40746c30.595832 33.958416 54.747905 72.486918 71.907727 114.802676 19.09387 47.084365 28.7723 96.826256 28.774347 147.851373-0.002047 51.02614-9.680477 100.772124-28.774347 147.854443-19.772322 48.756447-48.812729 92.494601-86.317924 129.99775-37.501102 37.502126-81.239256 66.543555-129.99775 86.316901-47.084365 19.092847-96.827279 28.7723-147.851373 28.7723-51.025117 0-100.770078-9.679453-147.853419-28.7723-48.756447-19.771299-92.495624-48.813752-129.999796-86.316901-37.502126-37.503149-66.542532-81.241302-86.313831-129.99775-19.094894-47.083341-28.774347-96.828302-28.77537-147.854443 0.001023-51.025117 9.680477-100.768031 28.773324-147.851373 19.772322-48.756447 48.812729-92.495624 86.315878-129.99775 37.504172-37.502126 81.243349-66.544579 129.999796-86.317924 47.084365-19.0908 96.828302-28.7723 147.853419-28.774347 51.024094 0.002047 100.770078 9.683547 147.851373 28.774347 42.315758 17.158798 80.843236 41.309848 114.802676 71.906703l204.40746-204.408483c8.176217-8.176217 21.431102-8.17417 29.609365 0.002047C945.00332-49.054997 945.00639-35.800112 936.831196-27.623895zM440.160323 89.167065c-93.562932 0.002047-181.52531 36.433794-247.680009 102.591563-66.156746 66.156746-102.592586 154.119123-102.594633 247.678986 0 93.562932 36.436864 181.524287 102.594633 247.680009 66.154699 66.157769 154.117077 102.59361 247.680009 102.594633 93.561909-0.001023 181.521217-36.435841 247.680009-102.594633 66.156746-66.155722 102.59054-154.117077 102.59054-247.680009 0-93.559862-36.433794-181.521217-102.59054-247.678986C621.68154 125.600859 533.722232 89.167065 440.160323 89.167065z"  horiz-adv-x="1024" />

    
    <glyph glyph-name="iconvip01" unicode="&#58899;" d="M579.446154 739.569231c-20.676923 20.676923-48 32-77.046154 32-60.184615 0-109.046154-48.984615-109.046154-109.046154 0-60.184615 48.984615-109.046154 109.046154-109.046154 60.184615 0 109.046154 48.984615 109.046154 109.046154C611.446154 691.569231 600 718.892308 579.446154 739.569231zM547.692308 662.4c0-24.984615-20.307692-45.415385-45.415385-45.415385-24.984615 0-45.415385 20.307692-45.415385 45.415385 0 24.984615 20.307692 45.415385 45.415385 45.415385C527.384615 707.815385 547.692308 687.507692 547.692308 662.4zM859.569231 562.215385c-54.769231 0-99.446154-44.553846-99.446154-99.446154 0-17.6 4.8-34.707692 13.784615-49.969231L649.846154 311.261538l-100.923077 231.384615-93.415385 0.246154-100.553846-229.661538L248.123077 409.846154c10.338462 16 15.753846 34.092308 15.753846 52.923077 0 54.769231-44.553846 99.446154-99.446154 99.446154S65.107692 517.538462 65.107692 462.769231c0-51.692308 39.630769-94.153846 89.969231-98.953846l69.907692-367.261538 553.476923 0 87.384615 367.015385c51.815385 3.323077 93.046154 46.523077 93.046154 99.2C958.892308 517.538462 914.338462 562.215385 859.569231 562.215385zM895.261538 462.769231c0-17.969231-13.538462-33.107692-31.507692-35.2-0.615385-0.123077-1.107692-0.123077-1.723077-0.246154-0.984615-0.123077-1.969231-0.246154-2.584615-0.246154-11.569231 0-22.030769 5.415385-28.923077 15.015385-4.430769 6.153846-6.769231 13.415385-6.769231 20.8 0 19.692308 16 35.692308 35.692308 35.692308C879.261538 498.461538 895.261538 482.461538 895.261538 462.769231zM277.661538 60.184615l-54.523077 286.4L377.969231 206.769231l119.261538 272.369231 10.092308 0 117.907692-270.4 171.938462 140.676923-68.923077-289.230769L277.661538 60.184615zM200.246154 462.769231c0-7.630769-2.584615-15.015385-7.384615-21.415385-6.892308-9.107692-17.230769-14.4-28.430769-14.4-0.984615 0-2.215385 0.123077-3.569231 0.369231l-1.107692 0.123077c-17.6 2.338462-31.015385 17.476923-31.015385 35.2 0 19.692308 16 35.692308 35.692308 35.692308C184.123077 498.461538 200.246154 482.461538 200.246154 462.769231zM463.630769 125.784615c-1.723077-4.553846-3.2-9.107692-4.430769-13.538462-1.230769 4.184615-2.584615 8.738462-4.307692 13.538462l-21.538462 60.184615-11.938462 0 32.123077-82.953846 11.2 0 32.492308 82.953846-11.2 0L463.630769 125.784615 463.630769 125.784615zM508.923077 186.092308 520 186.092308 520 103.138462 508.923077 103.138462 508.923077 186.092308ZM593.476923 181.415385c-2.707692 1.846154-6.153846 3.2-10.215385 3.938462-2.953846 0.492308-7.138462 0.738462-12.553846 0.738462l-31.261538 0 0-82.953846 10.953846 0 0 33.723077 21.292308 0c11.692308 0 19.815385 2.461538 24.369231 7.261538 4.430769 4.923077 6.769231 10.830769 6.769231 17.969231 0 4.061538-0.861538 7.876923-2.584615 11.323077C598.4 176.861538 596.184615 179.446154 593.476923 181.415385L593.476923 181.415385zM586.830769 150.646154c-2.953846-2.584615-8-3.938462-15.138462-3.938462l-21.415385 0 0 29.661538 21.169231 0c4.923077 0 8.369231-0.246154 10.215385-0.738462 2.830769-0.738462 5.169231-2.461538 6.892308-4.923077 1.723077-2.461538 2.584615-5.415385 2.584615-8.861538C591.261538 156.923077 589.784615 153.230769 586.830769 150.646154L586.830769 150.646154z"  horiz-adv-x="1024" />

    
    <glyph glyph-name="iconfontzhizuobiaozhun0247" unicode="&#59043;" d="M0.020978 603.445968l292.532543 0 0 292.532543-292.532543 0L0.020978 603.445968 0.020978 603.445968zM365.702518 603.445968l292.53152 0 0 292.532543-292.53152 0L365.702518 603.445968 365.702518 603.445968zM731.447503 895.979534l0-292.532543 292.53152 0 0 292.532543L731.447503 895.979534 731.447503 895.979534zM0.020978 237.702006l292.532543 0L292.553521 530.296971l-292.532543 0L0.020978 237.702006 0.020978 237.702006zM365.702518 237.702006l292.53152 0L658.234037 530.296971l-292.53152 0L365.702518 237.702006 365.702518 237.702006zM731.447503 237.702006l292.53152 0L1023.979022 530.296971l-292.53152 0L731.447503 237.702006 731.447503 237.702006zM0.020978-127.978511l292.532543 0 0 292.53152-292.532543 0L0.020978-127.978511 0.020978-127.978511zM365.702518-127.978511l292.53152 0 0 292.53152-292.53152 0L365.702518-127.978511 365.702518-127.978511zM731.447503-127.978511l292.53152 0 0 292.53152-292.53152 0L731.447503-127.978511 731.447503-127.978511z"  horiz-adv-x="1024" />

    
    <glyph glyph-name="dunpai" unicode="&#58946;" d="M512-64.16002l-9.515724 3.685949C196.871833 57.650257 161.529907 212.051813 161.529907 317.910792L161.529907 722.230328l27.282367-0.935302c212.432227-7.233752 302.889425 88.641853 303.741839 89.577155l19.472494 21.286816 19.444864-21.286816c0.715291-0.77055 86.441744-89.961918 281.052071-89.961918 0 0 0 0 0.027629 0 7.398504 0 14.96176 0.110517 22.63451 0.384763l27.282367 0.935302L862.468047 317.910792c0-105.85898-35.340903-260.259512-340.953346-378.384863L512-64.16002zM214.281341 668.159852 214.281341 317.910792c0-56.930617 0.027629-207.234855 297.718659-325.4697C809.718659 110.675938 809.718659 260.980175 809.718659 317.910792l0 350.249059c-164.852582 0.632403-259.709997 59.296501-297.718659 89.604784C473.963709 727.483982 379.105271 668.847513 214.281341 668.159852z"  horiz-adv-x="1024" />

    
    <glyph glyph-name="biaoqian" unicode="&#58883;" d="M668.444444 568.888889h156.444445v-587.847111L500.152889 165.916444 156.444444-18.958222V568.888889h170.666667M832-56.888889c-3.512889 0-7.025778 0.867556-10.225778 2.616889L493.184 124.942222 173.994667-54.172444A21.333333 21.333333 0 0 0 142.222222-35.555556v725.333334a21.333333 21.333333 0 0 0 21.333334 21.333333H327.111111a21.333333 21.333333 0 1 0 0-42.666667H184.888889v-667.562666l297.713778 167.068444a21.333333 21.333333 0 0 0 20.650666 0.113778L810.666667 0.384V668.444444H668.444444a21.333333 21.333333 0 1 0 0 42.666667h163.555556a21.333333 21.333333 0 0 0 21.333333-21.333333v-725.333334a21.333333 21.333333 0 0 0-21.333333-21.333333zM654.222222 782.222222H355.555556a21.333333 21.333333 0 1 0 0 42.666667h298.666666a21.333333 21.333333 0 1 0 0-42.666667zM597.333333 398.222222h-85.333333v85.333334a21.333333 21.333333 0 1 1-42.666667 0v-85.333334h-85.333333a21.333333 21.333333 0 1 1 0-42.666666h85.333333v-85.333334a21.333333 21.333333 0 1 1 42.666667 0v85.333334h85.333333a21.333333 21.333333 0 0 1 0 42.666666z"  horiz-adv-x="1024" />

    
    <glyph glyph-name="gengduo" unicode="&#58890;" d="M512 853.333333C251.733333 853.333333 42.666667 644.266667 42.666667 384s209.066667-469.333333 469.333333-469.333333 469.333333 209.066667 469.333333 469.333333S772.266667 853.333333 512 853.333333z m0-896C277.333333-42.666667 85.333333 149.333333 85.333333 384S277.333333 810.666667 512 810.666667s426.666667-192 426.666667-426.666667-192-426.666667-426.666667-426.666667zM294.4 384m-42.666667 0a42.666667 42.666667 0 1 1 85.333334 0 42.666667 42.666667 0 1 1-85.333334 0ZM507.733333 384m-42.666666 0a42.666667 42.666667 0 1 1 85.333333 0 42.666667 42.666667 0 1 1-85.333333 0ZM721.066667 384m-42.666667 0a42.666667 42.666667 0 1 1 85.333333 0 42.666667 42.666667 0 1 1-85.333333 0Z"  horiz-adv-x="1024" />

    
    <glyph glyph-name="vip" unicode="&#58908;" d="M823.86944 793.6l51.65056-71.14752a20.48 20.48 0 1 1 33.1776 24.08448l-57.83552 79.58528a20.48 20.48 0 0 1-16.5888 8.43776H189.72672a20.48 20.48 0 0 1-16.5888-8.43776l-148.76672-204.8a20.48 20.48 0 0 1 33.1776-24.08448L200.13056 793.6h623.73888z m91.46368-125.952l51.11808-70.41024a20.48 20.48 0 1 1 33.1776 24.08448l-51.15904 70.41024a20.48 20.48 0 0 1-33.13664-24.08448zM24.69888 514.90816l55.62368-72.54016a20.48 20.48 0 0 1 32.48128 24.90368L57.22112 539.81184a20.48 20.48 0 1 1-32.52224-24.90368z m139.264-114.36032a20.48 20.48 0 1 1-32.48128-24.94464l364.25728-475.136a20.48 20.48 0 0 1 32.52224 0l273.89952 357.29408a20.48 20.48 0 1 1-32.52224 24.94464l-257.6384-336.0768-347.99616 453.91872z m697.18016-65.82272l138.15808 180.18304a20.48 20.48 0 0 1-32.52224 24.90368l-138.11712-180.18304a20.48 20.48 0 0 1 32.48128-24.90368zM654.9504 435.24096c0-3.19488-2.00704-4.79232-5.98016-4.79232-7.20896 0-14.49984-5.20192-21.87264-15.5648-7.3728-10.40384-16.50688-27.77088-27.27936-52.18304l-63.52896-141.43488a399.9744 399.9744 0 0 0-9.29792-21.2992c-2.62144-5.36576-4.7104-8.06912-6.30784-8.06912h-20.35712c-1.6384 0-3.03104 1.18784-4.21888 3.60448-0.8192 1.59744-4.17792 9.0112-10.19904 22.15936a19970.048 19970.048 0 0 0-38.33856 89.2928 1592.1152 1592.1152 0 0 1-42.5984 89.94816c-7.168 14.336-13.06624 23.552-17.6128 27.56608-4.62848 3.97312-11.91936 5.98016-21.9136 5.98016-3.19488 0-4.79232 1.6384-4.79232 4.79232 0 5.61152 0.2048 9.0112 0.6144 10.19904 0.4096 1.59744 1.76128 2.41664 4.17792 2.41664h119.27552c5.20192 0 7.7824-1.4336 7.7824-4.21888v-10.19904c0-1.96608-2.99008-2.99008-9.0112-2.99008-8.35584 0-15.1552-1.39264-20.35712-4.17792-5.20192-2.82624-7.7824-7.61856-7.7824-14.41792 0-7.168 10.77248-35.55328 32.3584-85.11488 17.2032-39.5264 29.57312-66.92864 37.19168-82.08384l54.51776 133.03808c3.19488 7.61856 5.81632 14.90944 7.7824 21.87264 2.048 7.00416 3.03104 12.288 3.03104 15.89248 0 5.20192-3.11296 9.0112-9.29792 11.38688-6.18496 2.41664-14.86848 3.60448-26.09152 3.60448-3.97312 0-5.98016 1.2288-5.98016 3.60448v10.19904c0 2.37568 1.2288 3.60448 3.60448 3.60448h96.50176c3.97312 0 5.98016-1.80224 5.98016-5.40672v-7.20896zM143.36 568.32h733.184a20.48 20.48 0 1 1 0 40.96H143.36a20.48 20.48 0 0 1 0-40.96z"  horiz-adv-x="1024" />

    
    <glyph glyph-name="crown" unicode="&#59019;" d="M194.38562 109.011537L120.219765 491.41679l179.981649-39.013924L511.997 706.76037l211.799586-254.357504 179.981649 39.013924-74.165855-382.405253zM108.973787 511.714751m-83.293837 0a83.293837 83.293837 0 1 1 166.587674 0 83.293837 83.293837 0 1 1-166.587674 0ZM915.032213 511.714751m-83.293837 0a83.293837 83.293837 0 1 1 166.587674 0 83.293837 83.293837 0 1 1-166.587674 0ZM512.003 740.092305m-83.293837 0a83.293837 83.293837 0 1 1 166.587674 0 83.293837 83.293837 0 1 1-166.587674 0ZM194.885619 109.019537h634.226762v-164.411679H194.885619zM587.264853 435.4329c-42.171918 0-75.259853-47.021908-75.259853-47.021909s-31.209939 47.021908-75.277853 47.021909c-42.863916 0-77.865848-35.351931-80.155843-78.155848-1.287997-24.181953 6.505987-42.585917 17.487965-59.251884 21.947957-33.299935 117.90177-113.471778 138.087731-113.471778 20.60396 0 115.701774 79.879844 137.793731 113.471778 11.005979 16.743967 18.779963 35.071932 17.483965 59.251884-2.289996 42.799916-37.293927 78.155847-80.159843 78.155848M512.147 158.87144c-7.225986 0-24.149953 0-84.749835 50.141902-27.031947 22.363956-60.871881 53.781895-74.773854 74.877854-10.19998 15.47597-23.537954 40.061922-21.689957 74.751854 3.075994 57.457888 49.545903 102.4638 105.797793 102.463799 32.355937 0 58.537886-17.963965 75.461853-33.993933 17.097967 16.017969 43.355915 33.993934 75.075853 33.993933 56.25389 0 102.723799-45.007912 105.799793-102.461799 1.855996-34.611932-11.477978-59.223884-21.665957-74.731855-14.019973-21.317958-47.681907-52.709897-74.511855-74.985853-60.301882-50.055902-77.431849-50.055902-84.743834-50.055902z m-3.247994 50.9979z m-72.171859 199.88561c-28.469944 0-52.925897-24.157953-54.515894-53.851895-0.815998-15.29397 3.157994-28.381945 13.287975-43.753915 17.741965-26.917947 92.847819-89.787825 116.705772-100.975802 23.653954 11.041978 98.459808 73.855856 116.283772 100.957802 10.26998 15.627969 14.125972 28.309945 13.295975 43.769915-1.589997 29.695942-26.045949 53.855895-54.517894 53.855895-23.543954 0-47.667907-26.749948-54.261894-36.11993-4.88199-6.931986-12.797975-11.087978-21.347958-10.897978a25.66795 25.66795 0 0 0-21.041959 11.475977c-6.645987 9.815981-29.405943 35.539931-53.887895 35.539931zM612.340804 1.365747H335.039346c-14.181972 0-25.67795 11.497978-25.67795 25.67795s11.495978 25.67795 25.67795 25.67795h277.303458c14.181972 0 25.67795-11.497978 25.67795-25.67795s-11.497978-25.67795-25.67995-25.67795zM688.964654 1.359747a25.81195 25.81195 0 0 0-18.153964 7.523986 25.341951 25.341951 0 0 0-5.571989 8.345983 25.259951 25.259951 0 0 0-1.951996 9.809981c0 1.665997 0.154 3.363993 0.487999 5.03199 0.333999 1.617997 0.821998 3.235994 1.463997 4.801991a26.079949 26.079949 0 0 0 5.545989 8.317984 26.089949 26.089949 0 0 0 8.343984 5.573989 26.993947 26.993947 0 0 0 4.80199 1.459997c8.345984 1.669997 17.229966-1.051998 23.185955-7.035986 1.181998-1.181998 2.259996-2.489995 3.183994-3.901993 0.923998-1.385997 1.719997-2.875994 2.361995-4.415991 0.641999-1.565997 1.129998-3.157994 1.463997-4.801991 0.333999-1.669997 0.513999-3.365993 0.513999-5.03199a26.007949 26.007949 0 0 0-4.339991-14.249972 24.489952 24.489952 0 0 0-3.183994-3.905992 25.85195 25.85195 0 0 0-18.151965-7.521986zM915.026213 620.674538c-60.087883 0-108.971787-48.883905-108.971787-108.971787 0-5.08199 0.377999-10.06998 1.051998-14.967971l-73.541857-15.939969-148.58771 178.445651c22.087957 19.955961 35.99193 48.803905 35.99193 80.847843 0 60.087883-48.883905 108.971787-108.971787 108.971787s-108.971787-48.883905-108.971787-108.971787c0-32.041937 13.903973-60.889881 35.99193-80.847843l-148.58771-178.449651-73.541857 15.939969c0.675999 4.89599 1.051998 9.887981 1.051998 14.967971 0 60.087883-48.883905 108.971787-108.971787 108.971787S0 571.790633 0 511.704751c0-60.083883 48.883905-108.969787 108.971787-108.969788 0.765999 0 1.519997 0.044 2.281996 0.056L169.17967 104.125547c0.008-0.044 0.02-0.082 0.03-0.126v-159.383689c0-14.177972 11.495978-25.67795 25.677949-25.67795h634.226762c14.181972 0 25.67795 11.497978 25.677949 25.67795v159.383689c0.008 0.044 0.02 0.082 0.03 0.126l57.925887 298.667416c0.761999-0.016 1.517997-0.056 2.281996-0.056 60.087883 0 108.971787 48.883905 108.971787 108.969788-0.004 60.083883-48.887905 108.967787-108.975787 108.967787zM511.997 797.708192c31.769938 0 57.617887-25.84595 57.617887-57.617887s-25.84595-57.613887-57.617887-57.613888S454.379113 708.320367 454.379113 740.090305s25.84795 57.617887 57.617887 57.617887zM51.3539 511.704751c0 31.769938 25.84595 57.617887 57.617887 57.617887s57.617887-25.84595 57.617888-57.617887-25.84595-57.613887-57.617888-57.613888-57.617887 25.84195-57.617887 57.613888z m752.080531-541.414943H220.561569v113.043779h582.872862v-113.043779z m5.00199 164.401679H215.561579L161.005686 415.984938a109.777786 109.777786 0 0 1 36.561928 32.391936l97.19781-21.067959a25.70595 25.70595 0 0 1 25.171951 8.665983l165.275677 198.487613a108.871787 108.871787 0 0 1 26.789948-3.339994c9.241982 0 18.211964 1.165998 26.789948 3.339994l165.275677-198.487613a25.69595 25.69595 0 0 1 25.171951-8.665983l97.19781 21.067959a109.733786 109.733786 0 0 1 36.561928-32.391936l-54.563893-281.293451z m106.589792 319.395376c-31.769938 0-57.617887 25.84395-57.617888 57.613888s25.84595 57.617887 57.617888 57.617887c31.769938 0 57.617887-25.84595 57.617887-57.617887s-25.84795-57.613887-57.617887-57.613888z"  horiz-adv-x="1024" />

    
    <glyph glyph-name="tubiao-" unicode="&#58964;" d="M207.826 511.727l48.265 48.287 303.969-303.969-48.287-48.242zM464.1 256.273l303.946 303.946 48.287-48.265-303.969-303.969z"  horiz-adv-x="1024" />

    
    <glyph glyph-name="shouye" unicode="&#58991;" d="M1019.442176 386.525867L564.120576 841.847467A67.9936 67.9936 0 0 1 515.668309 861.815467a67.976533 67.976533 0 0 1-48.452266-19.968L209.219243 583.850667a0.597333 0.597333 0 0 0-1.006934 0.4096v105.181866c0 17.271467-11.776 33.4848-28.859733 36.0448a34.1504 34.1504 0 0 1-39.406933-33.7408v-176.930133a0.597333 0.597333 0 0 0-0.170667-0.4096L11.894443 386.525867c-13.602133-13.602133-16.366933-35.908267-4.010667-50.619734a36.1984 36.1984 0 0 1 53.384533-2.389333l79.138134 79.138133c0.375467 0.375467 1.006933 0.1024 1.006933-0.426666l-1.416533-437.777067a68.266667 68.266667 0 0 1 68.266666-68.266667h614.8096a68.266667 68.266667 0 0 1 68.266667 68.266667l-1.416533 437.777067c0 0.529067 0.631467 0.785067 1.006933 0.426666l79.138133-79.138133a36.1984 36.1984 0 0 1 53.384534 2.389333c12.373333 14.711467 9.591467 37.0176-4.010667 50.619734zM464.673109 571.7504A51.2 51.2 0 0 0 515.668309 622.933333a51.2 51.2 0 0 0 0-102.365866 51.182933 51.182933 0 0 0-50.9952 51.182933z m-51.2-596.753067V178.688a34.645333 34.645333 0 0 0 34.6624 34.6624h135.082667a34.645333 34.645333 0 0 0 34.6624-34.6624v-203.690667a0.597333 0.597333 0 0 0-0.597333-0.597333H414.053376a0.597333 0.597333 0 0 0-0.580267 0.597333z"  horiz-adv-x="1031" />

    
    <glyph glyph-name="zuanshi2" unicode="&#58920;" d="M240.128 537.088L115.712 408.064c-0.512-0.512 0-1.536 0.512-1.536h184.832L241.664 536.576c0 0.512-1.024 0.512-1.536 0.512zM330.752 387.584H116.736c-8.192 0-15.36 4.608-18.432 12.288-3.072 7.168-1.536 15.872 4.096 21.504l124.416 129.024c4.608 4.608 11.264 6.656 17.408 5.632 6.656-1.024 11.776-5.12 14.848-11.264l71.68-157.184z m-171.52 37.888h112.64L235.52 504.32 159.232 425.472zM745.984 537.6H246.272c-1.024 0-1.024-1.024-0.512-1.536l249.856-129.536h0.512l250.368 129.536c0.512 0.512 0 1.536-0.512 1.536zM495.616 387.584c-3.072 0-6.144 0.512-8.704 2.048L237.056 519.168c-8.192 4.096-12.288 13.312-10.24 22.016 2.048 8.704 10.24 14.848 18.944 14.848h499.712c9.216 0 16.896-6.144 18.944-14.848 2.048-8.704-2.048-17.92-10.24-22.016L504.832 389.632c-3.072-1.536-6.144-2.048-9.216-2.048zM320.512 518.656l175.104-91.136 175.616 91.136H320.512zM876.544 407.04L752.64 536.064c-0.512 1.024-2.048 0.512-2.56-0.512l-59.392-129.536h185.856s0.512 1.024 0 1.024zM876.032 387.072h-215.04l71.68 156.16c3.072 6.144 8.704 10.752 15.36 11.776 6.656 1.024 13.312-1.024 17.92-6.144l133.12-137.728-4.608-12.288-5.12-11.776h-13.312z m-156.16 38.4h113.152l-76.8 79.36-36.352-79.36zM115.712 404.48l374.784-416.768c1.024-1.024 2.56 0 2.048 1.536L301.568 406.016H116.224c-0.512 0-1.024-0.512-0.512-1.536zM491.52-31.232c-5.632 0-10.752 2.048-14.848 6.656L101.376 392.192c-5.12 5.632-6.656 14.336-3.072 21.504 3.072 7.168 10.24 11.776 17.92 11.776h197.12l196.096-428.032c4.096-9.216 1.024-19.456-7.168-25.088-3.072-2.56-7.168-3.584-10.752-3.584zM157.184 387.072L427.008 87.04 289.28 387.072H157.184zM114.176 406.016h187.392v0.512H114.176M301.568 387.072H114.176c-10.24 0-18.944 8.704-18.944 18.944v1.024c0.512 10.24 8.704 17.92 18.944 17.92h199.168l16.896-37.888h-28.672zM870.912 406.016h-180.736L496.64-15.872c0-0.512 0.512-0.512 0.512-0.512l375.808 417.792c1.536 2.048 0.512 4.608-2.048 4.608zM500.224-40.96l-27.648 17.92 6.656 15.36L678.4 424.96h193.024c8.704 0 16.384-5.12 19.968-12.8 3.584-7.68 2.048-16.896-3.584-23.04l-387.584-430.08z m202.24 428.032l-137.728-299.52L834.56 387.072h-132.096zM690.688 406.528v-0.512M690.688 387.072c-2.56 0-5.632 0.512-8.192 2.048-9.216 4.608-13.312 15.872-9.216 25.088 4.608 9.216 15.872 13.312 25.088 9.216 9.216-4.608 13.312-15.872 9.216-25.088-3.072-7.168-10.24-11.264-16.896-11.264zM493.568 407.552l-250.88 129.536c-0.512 0.512-1.024-0.512-1.024-1.024l59.392-129.536 0.512-0.512h191.488c1.024 0.512 1.024 1.024 0.512 1.536zM493.056 387.584H289.792l-5.632 11.264-65.024 141.824 9.728 10.24c6.144 5.632 15.36 7.168 22.528 3.072l250.88-129.536c8.192-4.096 12.288-13.312 10.24-22.016-2.56-8.704-10.24-14.848-19.456-14.848z m-179.712 37.888h103.936L281.088 495.616l32.256-70.144zM495.616 406.016h194.048c0.512 0 0.512 0 1.024 0.512l58.88 128c0.512 1.024-0.512 1.536-1.536 1.536L495.616 406.016zM495.616 387.072h-18.944V424.96h14.336l248.32 128c7.68 4.096 16.896 2.56 23.04-3.072 6.144-5.632 7.68-14.848 4.096-22.528l-58.88-128c-3.072-7.168-10.24-11.776-17.92-11.776l-194.048-0.512z m78.336 38.4h104.448l32.256 70.656-136.704-70.656zM301.568 406.016l192-418.816c0.512-1.024 2.048-1.024 2.048 0.512V406.016H301.568zM494.592-32.256c-7.68 0-14.848 4.608-18.432 11.776L271.872 424.96h242.688v-437.248c0-9.728-6.656-17.408-15.872-19.456-1.536-0.512-2.56-0.512-4.096-0.512z m-163.84 419.328l145.92-317.952V387.072H330.752zM301.568 406.528v-0.512h194.048v0.512zM495.616 387.072H289.28L272.384 424.96l29.184 0.512h212.992v-37.888zM495.616 406.016v-418.304c0-1.536 1.536-1.536 2.048-0.512l192.512 418.816h-194.56zM497.152-32.256c-1.536 0-3.072 0-4.608 0.512-9.216 2.048-15.872 10.24-15.872 19.456V424.96h243.2l-204.8-445.952c-3.072-6.656-10.24-11.264-17.92-11.264z m17.408 419.328v-318.464L660.48 387.072h-145.92zM495.616 406.528v-0.512h195.072v0.512zM690.688 387.072H476.672V424.96l18.944 0.512h224.768l-17.92-37.888zM496.128 639.488c-10.24 0-18.944 8.704-18.944 18.944V790.016c0 10.24 8.704 18.944 18.944 18.944s18.944-8.704 18.944-18.944v-131.584c0-10.24-8.704-18.944-18.944-18.944zM325.12 621.568c-6.144 0-11.776 2.56-15.36 7.68L237.056 731.136c-6.144 8.704-4.096 20.48 4.608 26.624 8.704 6.144 20.48 4.096 26.624-4.608l72.704-101.888c6.144-8.704 4.096-20.48-4.608-26.624-3.584-2.048-7.168-3.072-11.264-3.072zM668.672 627.712c-3.072 0-6.656 1.024-9.216 2.56-9.216 5.12-12.288 16.896-7.168 26.112L716.8 769.536c5.12 9.216 16.896 12.288 25.6 7.168 9.216-5.12 12.288-16.896 7.168-26.112l-65.024-113.152c-3.072-6.144-9.728-9.728-15.872-9.728zM172.544 558.592c-3.584 0-7.68 1.024-10.752 3.584l-102.4 71.68c-8.704 6.144-10.752 17.92-4.608 26.624 6.144 8.704 17.92 10.752 26.624 4.608l102.4-71.68c8.704-6.144 10.752-17.92 4.608-26.624-4.096-5.632-9.728-8.192-15.872-8.192zM846.336 558.592c-6.144 0-11.776 3.072-15.872 8.192-6.144 8.704-3.584 20.48 5.12 26.112l107.52 74.24c8.704 6.144 20.48 3.584 26.112-5.12 6.144-8.704 3.584-20.48-5.12-26.112l-107.52-74.24c-3.072-2.048-6.656-3.072-10.24-3.072z"  horiz-adv-x="1024" />

    
    <glyph glyph-name="fangzi" unicode="&#58902;" d="M770.646926 597.118762a102.325336 102.325336 0 0 0-101.770545 112.928595v105.358543h33.70229V881.133661A14.866339 14.866339 0 0 0 717.44501 896h3.422079a14.866339 14.866339 0 0 0 14.866339-14.866339v-65.727761H805.469169V881.133661A14.866339 14.866339 0 0 0 820.334471 896h3.451114A14.866339 14.866339 0 0 0 838.652962 881.133661v-65.727761h33.733399v-105.075443a103.476399 103.476399 0 0 0 0.58279-10.888432 102.322225 102.322225 0 0 0-102.322225-102.323263z m98.570383-251.310197L512.854483 703.66881 153.756068 345.808565H53.202953L513.046326 803.897346 969.386736 345.808565h-100.173575z m-354.340689 331.008335l333.28972-331.526831h0.33806v-472.091304H180.549906V345.292143h0.725896z m26.608217-709.640597h116.143275v116.143275h-116.143275v-116.143275z m0 167.797997h116.143275v116.143275h-116.143275v-116.143275z m-169.029945-167.797997h116.143275v116.143275h-116.143275v-116.143275z m0 166.69671h116.143275v116.143275h-116.143275v-116.143275z"  horiz-adv-x="1024" />

    
    <glyph glyph-name="huangguan" unicode="&#58949;" d="M648.8 654.9l-90.2 90.8c-25.8 26-67.6 26-93.4 0L375 654.9c-17.1-17.2-42.2-23.6-65.4-16.8l-113.1 33.5c-42.3 12.5-84.7-19.4-84.7-63.8v-489.1c0-36.7 29.6-66.5 66-66.5h667.9c36.5 0 66 29.8 66 66.5V607.8c0 44.4-42.4 76.4-84.7 63.8l-113.1-33.5c-23-6.9-48-0.5-65.1 16.8zM111.9 182.7v-64c0-36.7 29.6-66.5 66-66.5H217c-43 36-78.9 80.4-105.1 130.5zM911.9 607.8c0 44.4-42.4 76.4-84.7 63.8l-10.6-3.2c45-50.7 78.2-112.1 95.3-179.9V607.8zM911.9 118.7V276.5c-22.5-89.1-72.8-167.1-141-224.4h75c36.4 0.1 66 29.8 66 66.6zM111.9 607.8v-25.5c17.6 33.5 39.4 64.4 64.8 92-34.8-0.6-64.8-29.1-64.8-66.5zM911.9 276.5v212c-17.1 67.8-50.3 129.2-95.3 179.9l-62.8-18.6c58.4-65.7 93.9-152.2 93.9-247 0-161.8-103.2-299.4-247.4-350.6H771c68.1 57.2 118.3 135.2 140.9 224.3zM213.3 666.6l-16.8 5c-6.7 2-13.4 2.9-19.9 2.7-25.4-27.6-47.2-58.5-64.8-92v-101.1c15.5 71.7 51.4 135.6 101.5 185.4zM111.9 324.3v-141.6c26.3-50.1 62.1-94.5 105.1-130.5h134c-120.2 42.7-211.9 145.4-239.1 272.1zM605 699l-46.4 46.7c-25.8 26-67.6 26-93.4 0l-9.7-9.7h1.7c53.5 0 103.8-13.4 147.8-37zM847.6 402.8c0 94.8-35.5 181.3-93.9 247l-39.6-11.7c-9.1-2.7-18.5-3.3-27.6-2.1 51.9-55.9 83.7-130.7 83.7-213 0-172.8-140.1-312.9-312.9-312.9s-313 140.1-313 312.9c0 92.6 40.3 175.9 104.2 233.2l-35.2 10.4c-50.1-49.8-86.1-113.7-101.5-185.4v-157c27.3-126.6 119-229.3 239.2-272.1h249.2C744.3 103.4 847.6 241 847.6 402.8zM144.3 423c0-172.8 140.1-312.9 312.9-312.9s313 140.1 313 312.9c0 82.3-31.8 157.1-83.7 213-14 1.9-27.4 8.4-37.7 18.9L605 699c-44 23.6-94.3 37-147.8 37h-1.7L416 696.1c7.5 0.7 15.2 1 22.9 1 140.2 0 253.9-113.7 253.9-253.9S579.1 189.4 438.9 189.4 185 303.1 185 443.3c0 82.4 39.3 155.7 100.2 202l-36.6 10.9C184.5 598.9 144.3 515.7 144.3 423zM185 443.3c0-140.2 113.7-253.9 253.9-253.9s253.9 113.7 253.9 253.9-113.7 253.9-253.9 253.9c-7.7 0-15.4-0.4-22.9-1l-41-41.3c-0.9-0.9-1.7-1.7-2.6-2.5 15.4 3.9 31.5 6 48.2 6 107.6 0 194.8-87.2 194.8-194.8s-87.2-194.8-194.8-194.8S225.7 356 225.7 463.6c0 74.4 41.7 139 103 171.8-6.4 0-12.8 0.8-19 2.7l-24.5 7.3C224.3 599 185 525.7 185 443.3zM225.7 463.6c0-107.6 87.2-194.8 194.8-194.8S615.3 356 615.3 463.6s-87.2 194.8-194.8 194.8c-16.6 0-32.8-2.1-48.2-6-12.1-11-27.7-16.9-43.7-17-61.2-32.8-102.9-97.5-102.9-171.8z m176.5 156c75 0 135.7-60.8 135.7-135.7s-60.8-135.7-135.7-135.7S266.5 409 266.5 483.9s60.7 135.7 135.7 135.7zM402.2 483.8m-135.7 0a135.7 135.7 0 1 1 271.4 0 135.7 135.7 0 1 1-271.4 0ZM511.9 747.2c12.8 0 24.9-5 33.9-14.2l90.2-90.8c15.9-16 37-24.8 59.5-24.8 8 0 16 1.2 23.8 3.5l113.1 33.5c4.5 1.3 9.1 2 13.7 2 26.4 0 47.9-21.8 47.9-48.6v-489.1c0-26.7-21.6-48.5-48-48.5H177.9c-26.5 0-48 21.8-48 48.5V607.8c0 13.2 5.1 25.5 14.4 34.6 9.1 9 21 13.9 33.5 13.9 4.6 0 9.2-0.7 13.7-2l113.1-33.5c7.7-2.3 15.7-3.5 23.8-3.5 22.5 0 43.6 8.8 59.5 24.8l90.2 90.8c8.9 9.2 21 14.3 33.8 14.3m0 18c-16.9 0-33.8-6.5-46.7-19.5L375 654.9c-12.6-12.7-29.4-19.5-46.7-19.5-6.2 0-12.5 0.9-18.6 2.7l-113.1 33.5c-6.3 1.9-12.6 2.7-18.8 2.8-35.2 0-65.9-28.8-65.9-66.6v-489.1c0-36.7 29.6-66.5 66-66.5h667.9c36.5 0 66 29.8 66 66.5V607.8c0 37.8-30.7 66.6-65.9 66.6-6.2 0-12.5-0.9-18.8-2.8L714 638.1c-6.1-1.8-12.4-2.7-18.6-2.7-17.3 0-34.1 6.8-46.7 19.5l-90.2 90.8c-12.8 13-29.7 19.5-46.6 19.5zM585.3 522.1H438.4c-16.8 0-32.8-7.1-44.7-19.7L292.6 394.9c-9.4-10-9.4-26.2 0-36.2l196.7-209.1c12.5-13.3 32.7-13.3 45.2 0l196.7 209.1c9.4 10 9.4 26.2 0 36.2L630 502.4c-11.9 12.6-27.9 19.7-44.7 19.7zM172.3 509.4c-9.9 0-18 8.1-18 18v46.5c0 15.6 7.1 30 19.5 39.5S202 626 217 621.9l26.4-7.1c9.6-2.6 15.3-12.5 12.7-22.1S243.6 577.4 234 580l-26.4 7.1c-4.2 1.1-8.5 0.3-12-2.4-3.4-2.6-5.4-6.6-5.4-10.9v-46.5c0.1-9.8-8-17.9-17.9-17.9zM172.3 439.8c-9.9 0-18 8.1-18 18v10.5c0 9.9 8.1 18 18 18s18-8.1 18-18v-10.5c0-10-8.1-18-18-18z"  horiz-adv-x="1024" />

    
    <glyph glyph-name="rili" unicode="&#59250;" d="M234.1 218.9h151.6v-75.8H234.1v75.8zM638.3 218.9h151.6v-75.8H638.3v75.8zM436.2 218.9h151.6v-75.8H436.2v75.8zM234.1 345.2h151.6v-75.8H234.1v75.8zM638.3 345.2h151.6v-75.8H638.3v75.8zM436.2 345.2h151.6v-75.8H436.2v75.8zM663.6 799.9h101.1v-227.4H663.6V799.9zM259.4 799.9h101.1v-227.4H259.4V799.9zM890.9-33.8H133.1c-27.9 0-50.5 22.6-50.5 50.5V471.5c0 27.9 22.6 50.5 50.5 50.5H891c27.9 0 50.5-22.6 50.5-50.5v-454.7c0-28-22.6-50.6-50.6-50.6zM183.6 67.3h656.8V421H183.6v-353.7zM941.5 421h-859C54.6 421 32 443.6 32 471.5V698.9c0 27.9 22.6 50.5 50.5 50.5h858.9c27.9 0 50.5-22.6 50.5-50.5v-227.4c0.1-27.9-22.5-50.5-50.4-50.5zM133.1 522H891V648.3H133.1V522z"  horiz-adv-x="1024" />

    
    <glyph glyph-name="gengduo1" unicode="&#58667;" d="M36.571429 822.857143h1097.142857a36.571429 36.571429 0 0 1 0 73.142857H36.571429a36.571429 36.571429 0 0 1 0-73.142857zM1133.714286 424.96H36.571429a36.571429 36.571429 0 0 1 0-73.142857h1097.142857a36.571429 36.571429 0 0 1 0 73.142857zM1133.714286-54.857143H36.571429a36.571429 36.571429 0 0 1 0-73.142857h1097.142857a36.571429 36.571429 0 0 1 0 73.142857z"  horiz-adv-x="1170" />

    
    <glyph glyph-name="gerenzhongxin1" unicode="&#59017;" d="M416.09769 581.973333m-314.026667 0a314.026667 314.026667 0 1 1 628.053333 0 314.026667 314.026667 0 1 1-628.053333 0ZM655.031023 102.741333c64.170667-45.056 102.4-117.418667 102.4-196.608 0-19.114667-15.018667-34.133333-34.133333-34.133333S689.164356-112.981333 689.164356-93.866667C689.164356 0.341333 612.70569 76.8 518.49769 76.8S347.831023 0.341333 347.831023-93.866667c0-19.114667-15.018667-34.133333-34.133333-34.133333S279.564356-112.981333 279.564356-93.866667c0 76.458667 36.864 148.821333 98.304 192.512C164.876356 172.373333 51.55369 405.845333 125.28169 620.202667 199.00969 833.194667 431.116356 946.517333 645.47369 872.789333s327.68-307.2 253.952-520.192c-40.96-116.053333-129.706667-207.530667-244.394667-249.856zM511.671023 827.733333C323.255023 827.733333 170.33769 674.816 170.33769 486.4s152.917333-341.333333 341.333333-341.333333 341.333333 152.917333 341.333333 341.333333S700.087023 827.733333 511.671023 827.733333zM640.012356 321.194667c-75.093333-47.786667-170.666667-46.421333-245.76 2.730666-16.384 10.922667-20.48 32.768-10.922666 49.152 9.557333 16.384 28.672 21.845333 45.056 12.288l1.365333-1.365333c53.248-34.133333 121.514667-35.498667 174.762667-1.365333 15.018667 9.557333 35.498667 5.461333 45.056-10.922667l1.365333-1.365333c9.557333-17.749333 4.096-39.594667-10.922667-49.152z"  horiz-adv-x="1024" />

    
    <glyph glyph-name="zhuanfa" unicode="&#59352;" d="M539.229091 35.351273a11.52 11.52 0 0 1 9.728 0.930909 11.217455 11.217455 0 0 1 5.864727 10.007273V282.112c0 11.310545 5.538909 21.876364 14.894546 28.392727 9.309091 6.516364 21.317818 8.145455 32.069818 4.375273a603.787636 603.787636 0 0 0 298.100363-228.677818c4.747636 21.504 7.121455 43.426909 7.121455 65.629091 0 172.520727-142.196364 312.832-316.974545 312.832-19.432727 0-35.211636 15.569455-35.211637 34.746182V744.96a11.217455 11.217455 0 0 1-5.864727 10.030545 11.310545 11.310545 0 0 1-9.728 0.93091L128.116364 409.367273c-1.629091-1.396364-3.374545-2.606545-5.259637-3.677091a11.170909 11.170909 0 0 1-5.864727-10.030546c0-2.513455 0.744727-7.144727 5.864727-10.053818 1.861818-1.070545 3.607273-2.280727 5.259637-3.653818L539.229091 35.351273zM543.069091-34.909091a82.920727 82.920727 0 0 0-41.076364 10.984727 37.096727 37.096727 0 0 0-5.282909 3.677091L84.48 327.284364A79.895273 79.895273 0 0 0 46.545455 395.636364c0 28.113455 14.08 53.410909 37.934545 68.352L496.709818 811.52c1.652364 1.396364 3.421091 2.583273 5.282909 3.653818a82.176 82.176 0 0 0 82.152728 0 80.058182 80.058182 0 0 0 41.099636-70.213818v-212.363636C822.458182 514.978909 977.454545 350.952727 977.454545 151.831273c0-56.622545-12.660364-111.662545-37.608727-163.560728-5.818182-12.101818-18.059636-19.781818-31.557818-19.898181h-0.256a35.304727 35.304727 0 0 0-31.604364 19.432727c-52.968727 106.123636-142.941091 192.465455-251.182545 242.525091v-184.017455c0-29.323636-15.36-55.575273-41.076364-70.237091a82.920727 82.920727 0 0 0-41.099636-10.984727z"  horiz-adv-x="1024" />

    
    <glyph glyph-name="VIP" unicode="&#59146;" d="M747.2 0H276.8c-46.4 0-84.8 32-94.4 76.8L64 665.6c-3.2 12.8 3.2 27.2 16 33.6 11.2 6.4 27.2 4.8 36.8-3.2l198.4-169.6 171.2 228.8c12.8 16 38.4 16 51.2 0l171.2-228.8L907.2 696c9.6 9.6 25.6 9.6 36.8 3.2 11.2-6.4 17.6-20.8 16-33.6L841.6 76.8c-9.6-44.8-48-76.8-94.4-76.8zM145.6 587.2l99.2-497.6c3.2-14.4 16-25.6 32-25.6h470.4c16 0 28.8 11.2 32 25.6l99.2 497.6L724.8 456c-6.4-6.4-16-8-24-8-8 1.6-17.6 4.8-22.4 12.8L512 683.2 345.6 460.8c-4.8-6.4-12.8-11.2-22.4-12.8-8-1.6-17.6 1.6-24 8L145.6 587.2zM512 160c-11.2 0-22.4 6.4-27.2 16l-96 160c-9.6 14.4-4.8 35.2 11.2 43.2 14.4 9.6 35.2 4.8 43.2-11.2L512 254.4 580.8 368c9.6 14.4 28.8 20.8 43.2 11.2 14.4-9.6 20.8-28.8 11.2-43.2l-96-160c-4.8-9.6-16-16-27.2-16z"  horiz-adv-x="1024" />

    
    <glyph glyph-name="gouwuche" unicode="&#58891;" d="M340.101083 225.289492v-1.598595h0.699385l0.099913-0.199825 0.399648 0.199825H707.378281v43.461801H369.175529L197.026832 659.30803l-0.299737-0.099912v0.099912h-115.898136c-8.992097-14.087618-17.284808-28.574885-24.878135-43.461801h112.601035l171.549224-390.556737zM274.15904-1.211435l-46.758903-39.26549c10.790516-7.29359 21.880769-14.087618 33.270758-20.58191l37.367157 31.372427-23.879012 28.474973zM393.054542-1.211435l-94.516929-79.330276c12.688848-5.794907 25.57752-11.190165 38.765929-15.98595l79.630012 66.841253-23.879012 28.474973zM504.756366-1.211435l-128.287247-107.705337c14.886916-4.0964 30.073568-7.493414 45.460045-10.290956l106.706215 89.621232-23.879013 28.375061zM623.851693-1.211435l-148.469509-124.690409c12.189287-0.89921 24.578398-1.298858 36.967509-1.298859 6.594204 0 13.088496 0.099912 19.582788 0.399649l115.798224 97.214558-23.879012 28.375061zM734.554396-1.211435L591.879793-121.006147c27.775588 4.296224 54.85179 10.890428 81.028783 19.582789l85.524832 71.836862-23.879012 28.375061zM811.586691 223.590984H998.122744c16.785247 50.555566 25.777344 104.608059 25.777344 160.858621 0 282.551664-228.998732 511.550395-511.550395 511.550395C331.009074 895.900088 171.749049 801.582984 80.828959 659.30803h115.898136v-0.099912l0.299737 0.099912 172.148697-392.05542h338.10284V223.690897H341.200117l-0.399649-0.199825-0.099912 0.199825h-0.699385v1.598595L168.651771 615.746317H55.950824C20.681823 546.307347 0.799297 467.676456 0.799297 384.349693c0-56.150649 9.092009-110.203142 25.877257-160.858621h161.358181v-35.468826H39.864962c13.887794-33.37067 31.172602-64.942921 51.554689-94.317104 36.467948-52.753635 82.72729-98.313592 135.980486-134.182067l46.758903 39.26549 23.879012-28.474973-37.467069-31.372427c12.389111-6.993853 25.077959-13.488145 37.96663-19.482876l94.516929 79.330276 23.879012-28.474973-79.630012-66.841253c12.78876-4.695873 25.877256-8.792272 39.165577-12.489024l128.287247 107.705338 23.879013-28.474974-106.706215-89.621231c13.588057-2.397892 27.375939-4.296224 41.363645-5.694995 3.996487-0.399649 7.992975-0.699385 11.989462-0.999121l148.46951 124.690408 23.879012-28.474973-115.798224-97.214557c9.59157 0.399649 19.18314 0.999122 28.674798 1.898331 10.49078 0.999122 20.881647 2.29798 31.272514 3.896575l142.674602 119.794712 23.879013-28.474973-85.524832-71.836862c108.904283 35.968387 201.622792 107.505513 264.367646 200.923407 18.583667 27.675676 34.569617 57.349595 47.558201 88.522197H811.586691v35.968387zM187.934823 223.590984H26.576642c3.996487-11.989462 8.392624-23.879013 13.28832-35.468826h148.169773v35.468826zM811.586691 223.590984v-35.468826h173.247732c4.795785 11.589814 9.291833 23.479364 13.188408 35.468826H811.586691zM720.966338 421.616938l5.295346 12.489024h-5.295346zM618.856084 434.105962h78.131329v-27.475852h-78.131329zM533.830813 434.105962h61.046346v-27.475852h-61.046346zM618.856084 540.112791h78.131329v-30.373304h-78.131329zM720.966338 458.184799H736.352815l11.589814 27.475851h-26.976291zM618.856084 590.068885h78.131329v-25.877257h-78.131329zM720.966338 509.739487h37.067421l12.688848 30.373304h-49.756269zM363.880183 434.105962h64.443361v-27.475852h-64.443361zM533.830813 590.068885h61.046346v-25.877257h-61.046346zM533.830813 485.66065h61.046346v-27.475851h-61.046346zM533.830813 540.112791h61.046346v-30.373304h-61.046346zM618.856084 485.66065h78.131329v-27.475851h-78.131329zM452.402381 540.112791h57.449507v-30.373304h-57.449507zM363.880183 485.66065h64.443361v-27.475851h-64.443361zM452.402381 485.66065h57.449507v-27.475851h-57.449507zM452.402381 434.105962h57.449507v-27.475852h-57.449507zM533.830813 382.551273h61.046346v-20.781735h-61.046346zM696.987413 364.467168V382.551273h-78.131329v-20.781735h77.032295zM720.966338 564.091716h59.8474l10.890428 25.977169h-70.737828zM533.830813 337.790614h61.046346v-35.468827h-61.046346zM339.901259 564.091716v25.977169h-74.334667l11.290077-25.977169zM452.402381 337.790614h57.449507v-35.468827h-57.449507zM618.856084 337.790614v-35.568739h52.054249l14.886916 35.568739zM428.323544 337.790614h-53.253196l15.386477-35.568739h37.866719zM428.323544 382.551273h-64.443361v-19.083227l0.799298-1.698508h63.644063zM300.435945 509.739487h39.465314v30.373304h-52.653723zM452.402381 382.551273h57.449507v-20.781735h-57.449507zM363.880183 590.068885h64.443361v-25.877257h-64.443361zM363.880183 540.112791h64.443361v-30.373304h-64.443361zM452.402381 590.068885h57.449507v-25.877257h-57.449507zM339.901259 458.184799v27.475851h-28.974534l11.88955-27.475851zM339.901259 434.105962h-6.694117l6.694117-15.286565zM657.921748 118.583276m-48.857059 0a48.857059 48.857059 0 1 1 97.714119 0 48.857059 48.857059 0 1 1-97.714119 0ZM381.664553 118.583276m-48.85706 0a48.857059 48.857059 0 1 1 97.714119 0 48.857059 48.857059 0 1 1-97.714119 0Z"  horiz-adv-x="1024" />

    
    <glyph glyph-name="yusan" unicode="&#59329;" d="M912 388.4c0-4.1-1.5-7.8-4.6-10.8s-6.7-4.6-10.8-4.6c-3.5 0-7.2 1.6-11 4.9-15.7 14.8-30.6 25.8-44.7 33.2-14.2 7.4-30.4 11-49 11-21.8 0-42.3-6-61.6-17.8-19.2-11.8-35.7-27.4-49.6-46.6-2.2-3.2-5.1-7.7-8.4-13.4-3.3-5.8-5.7-9.6-7-11.5-3.5-5.5-8-8.2-13.4-8.2-5.8 0-10.4 2.7-14 8.2-1.3 1.9-3.6 5.8-7 11.5-3.3 5.8-6.2 10.2-8.4 13.4-13.8 19.2-30.2 34.8-49.2 46.6-19.1 11.8-39.5 17.7-61.4 17.7-21.8 0-42.3-6-61.3-17.8-19.1-11.8-35.5-27.4-49.2-46.6-2.2-3.2-5.1-7.7-8.4-13.4-3.3-5.8-5.7-9.6-7-11.5-3.5-5.5-8.2-8.2-14-8.2-5.5 0-9.9 2.7-13.4 8.2-1.3 1.9-3.6 5.8-7 11.5-3.3 5.8-6.2 10.2-8.4 13.4-13.8 19.2-30.3 34.8-49.6 46.6C274.5 416 254 422 232.1 422c-18.6 0-35-3.6-49-11-14.2-7.4-29-18.4-44.7-33.2-3.8-3.2-7.6-4.9-11-4.9-4.1 0-7.8 1.5-10.8 4.6-3 3-4.6 6.7-4.6 10.8 0 1.6 0.2 2.7 0.5 3.3 14.5 58.7 42.1 109.8 82.9 153.6s88.6 76.6 143.3 98.3c54.6 21.8 112.5 32.7 173.3 32.7 44.9 0 88.9-6.4 132-19.2 43.1-12.8 82.6-31 118.5-54.6 35.9-23.6 67-53.5 93.5-89.9s45-76.7 55.5-120.9c0.3-0.6 0.5-1.7 0.5-3.2z m-369.3 12.9v-278.9c0-33.4-12.2-62.2-36.5-86.6-24.4-24.4-53.2-36.5-86.6-36.5s-62.2 12.2-86.6 36.5c-24.4 24.4-36.5 53.2-36.5 86.6 0 8.3 3 15.6 9.1 21.6 6.1 6.1 13.2 9.1 21.6 9.1 8.3 0 15.6-3 21.6-9.1 6.1-6.1 9.1-13.3 9.1-21.6 0-16.1 6.3-30.3 18.7-42.8 12.4-12.4 26.8-18.7 42.8-18.7s30.3 6.3 42.8 18.7c12.5 12.5 18.7 26.8 18.7 42.8V401.3c10.6 3.5 20.8 5.3 30.7 5.3 10.3 0 20.6-1.7 31.1-5.3z m0 336.6v-47.1c-13.4 0.6-23.8 1-30.7 1-7.1 0-17.3-0.3-30.7-1v47.1c0 8.3 3 15.6 9.1 21.6 6.1 6.1 13.2 9.1 21.6 9.1 8.3 0 15.6-3 21.6-9.1 6.1-6 9.1-13.2 9.1-21.6z"  horiz-adv-x="1024" />

    
    <glyph glyph-name="xingzhuanggongnengtubiao-" unicode="&#58909;" d="M791.466667 484.266667c10.666667 0 106.666667-4.266667 98.133333 4.266666L522.666667 812.8c-4.266667 4.266667-8.533333 4.266667-12.8 0L134.4 488.533333c-8.533333-6.4 83.2-4.266667 93.866667-4.266666h563.2zM849.066667 462.933333H219.733333c-87.466667-2.133333-98.133333 0-104.533333 17.066667l-6.4 14.933333 10.666667 10.666667L494.933333 829.866667c12.8 10.666667 29.866667 10.666667 40.533334 0l377.6-334.933334-4.266667-14.933333c-4.266667-14.933333-12.8-17.066667-59.733333-17.066667z m-57.6 42.666667h46.933333L516.266667 791.466667 187.733333 505.6H791.466667zM211.2 320h601.6v-305.066667H211.2zM812.8 430.933333V21.333333c0-14.933333-14.933333-27.733333-32-27.733333H243.2c-17.066667 0-32 12.8-32 27.733333V430.933333M780.8-29.866667H243.2c-29.866667 0-53.333333 23.466667-53.333333 49.066667V430.933333h42.666666V21.333333c0-4.266667 4.266667-6.4 10.666667-6.4h537.6c6.4 0 10.666667 4.266667 10.666667 6.4V430.933333h42.666666V21.333333c0-27.733333-23.466667-51.2-53.333333-51.2zM505.6 241.066667m-140.8 0a140.8 140.8 0 1 1 281.6 0 140.8 140.8 0 1 1-281.6 0ZM648.533333 590.933333c-6.4 0-10.666667 2.133333-14.933333 6.4l-74.666667 74.666667c-8.533333 8.533333-8.533333 21.333333 0 29.866667 8.533333 8.533333 21.333333 8.533333 29.866667 0l74.666667-74.666667c8.533333-8.533333 8.533333-21.333333 0-29.866667-4.266667-4.266667-10.666667-6.4-14.933334-6.4z"  horiz-adv-x="1024" />

    
    <glyph glyph-name="sousuo" unicode="&#58912;" d="M184.1152 168.8064A384 384 0 1 0 727.1936 711.8848 384 384 0 0 0 184.1152 168.8064z m36.1984 36.1984a332.8 332.8 0 1 1 470.6816 470.6816 332.8 332.8 0 0 1-470.6816-470.6816zM745.2672 223.1296l181.0432-181.0432a51.2 51.2 0 0 0-72.3968-72.3968l-181.0432 181.0432 72.3968 72.3968z"  horiz-adv-x="1024" />

    
    <glyph glyph-name="VIP1" unicode="&#58930;" d="M704.9 555.9L516.5 786.3l-19.6 19.1-19.1-19.1-188.4-230.4-227 161.4 87.4-734.5h694.6l87.4 734.5-226.9-161.4zM800 32.8H194.3l-68.8 578.3 173-123.1 198.6 242.9L695.8 488l173.1 123.1L800 32.8zM722.7 102.8H271.6v50l25 0.1h426.1z"  horiz-adv-x="1024" />

    
    <glyph glyph-name="huangguan1" unicode="&#58894;" d="M186.997713 29.407183L96.433117 570.007278l245.184301-204.225439 224.932418 358.162496 200.641538-358.219383 275.334574 204.282326-83.965668-540.600095H186.997713zM60.821662 626.496375a59.902336 59.902336 0 1 0 0 119.747785 59.902336 59.902336 0 0 0 0-119.747785zM569.8493 776.223772A59.902336 59.902336 0 1 0 569.8493 895.971556a59.902336 59.902336 0 0 0 0-119.747784z m508.970751-149.727397a59.902336 59.902336 0 1 0 0 119.747785 59.902336 59.902336 0 0 0 0-119.747785zM213.279649-105.984612a28.443654 28.443654 0 1 0 0 56.887309h720.193328a28.443654 28.443654 0 0 0 0-56.887309H213.222762z"  horiz-adv-x="1138" />

    
    <glyph glyph-name="huiyuanvip" unicode="&#59312;" d="M512 384m-448 0a448 448 0 1 1 896 0 448 448 0 1 1-896 0ZM760.4 535.2L524.9 172.8c-2.5-3.3-6.3-5.4-10.4-5.6h-55.3c-4 0.2-7.5 2.6-9.2 6.2L303.1 534.5c-1.4 3.4 0.5 6.3 4.1 6.3h168.4c3.7 0 5.3-2.7 3.5-5.9l-23.9-35.3c-1.8-3.8-2.1-8.1-0.7-12.1l49.7-129.3c1.4-3.4 4.1-3.7 6.1-0.6l115 177.6c2.5 3.3 6.3 5.4 10.4 5.6h121.6c3.7 0 5.1-2.5 3.1-5.6z"  horiz-adv-x="1024" />

    
    <glyph glyph-name="jiugongge" unicode="&#58893;" d="M0 427.7h471.3V887.8H0v-460.1zM30.6 857.9h410.2v-400.4H30.6V857.9zM0-119.4h471.3V340.7H0v-460.1z m30.6 430.2h410.2v-400.4H30.6V310.8zM552.9-119.4h471.3V340.7H552.9v-460.1z m30.5 430.2h410.2v-400.4H583.4V310.8zM552.9 887.8v-460h471.3V887.8H552.9z m440.7-430.2H583.4V857.9h410.2v-400.3zM853.5 703.8h63.7v89.5H701.9v-28.6h151.6zM853.5 614.2h63.7v-27.4h-63.7z"  horiz-adv-x="1025" />

    
    <glyph glyph-name="VIP2" unicode="&#58921;" d="M493.2-62.1c-6 0-11.7 2.8-15.4 7.6L32.6 525.6c-5.4 7-5.4 16.7 0 23.7L255.2 837.6c3.7 4.8 9.4 7.6 15.4 7.6h445.2c6 0 11.7-2.8 15.4-7.6l222.6-288.2c5.4-7 5.4-16.7 0-23.7L508.6-54.5c-3.6-4.8-9.3-7.6-15.4-7.6zM72.6 537.4l420.6-548.1 420.6 548.1L706.2 806.2h-426L72.6 537.4zM919.6 514H66.8c-10.7 0-19.5 8.7-19.5 19.4 0 10.8 8.7 19.5 19.5 19.5h852.9c10.8 0 19.5-8.7 19.5-19.5-0.1-10.7-8.8-19.4-19.6-19.4zM492.5 514c-0.1 0-0.1 0 0 0-6.1 0-11.8 2.9-15.5 7.7L255.1 813.9c-6.5 8.6-4.8 20.8 3.7 27.3 8.6 6.5 20.8 4.8 27.3-3.7l206.4-271.9L700.3 837.5c6.5 8.5 18.8 10.1 27.3 3.6 8.6-6.5 10.2-18.7 3.6-27.3L507.9 521.7c-3.7-4.9-9.4-7.7-15.4-7.7z"  horiz-adv-x="1024" />

    
    <glyph glyph-name="sousuo1" unicode="&#58900;" d="M422 773.783c87.184 0 166.131-35.353 223.269-92.492 57.139-57.138 92.49-136.084 92.49-223.269 0-70.326-23.004-135.288-61.89-187.769l227.948-210.366c15.666-14.471 16.659-39.108 2.2-54.791h-0.021c-14.462-15.683-39.104-16.667-54.783-2.205L622.432 214.039C567.913 169.195 498.093 142.263 422 142.263c-87.184 0-166.13 35.352-223.269 92.493-57.136 57.135-92.485 136.085-92.485 223.267 0 87.184 35.349 166.13 92.485 223.269C255.87 738.436 334.816 773.783 422 773.783z m184.814-130.946C559.526 690.123 494.177 719.384 422 719.384c-72.176 0-137.528-29.254-184.814-76.546-47.284-47.286-76.54-112.638-76.54-184.814 0-72.174 29.256-137.524 76.54-184.816 47.286-47.284 112.638-76.543 184.814-76.543 72.177 0 137.526 29.259 184.814 76.543 47.284 47.292 76.543 112.642 76.543 184.816 0 72.175-29.258 137.527-76.543 184.813z"  horiz-adv-x="1024" />

    
    <glyph glyph-name="gengduo2" unicode="&#59192;" d="M284 320c-35.346 0-64 28.654-64 64 0 35.346 28.654 64 64 64 35.346 0 64-28.654 64-64 0-35.346-28.654-64-64-64z m228 0c-35.346 0-64 28.654-64 64 0 35.346 28.654 64 64 64 35.346 0 64-28.654 64-64 0-35.346-28.654-64-64-64z m228 0c-35.346 0-64 28.654-64 64 0 35.346 28.654 64 64 64 35.346 0 64-28.654 64-64 0-35.346-28.654-64-64-64zM512-64C264.576-64 64 136.576 64 384S264.576 832 512 832s448-200.576 448-448-200.576-448-448-448z m0 64c212.077 0 384 171.923 384 384S724.077 768 512 768 128 596.077 128 384s171.923-384 384-384z"  horiz-adv-x="1024" />

    
    <glyph glyph-name="shouye1" unicode="&#58961;" d="M832.512-61.44H588.8v379.904H436.224V-61.44H193.024v379.904H103.424c-4.608 0-8.704 0.512-12.288 1.536v-0.512c-10.24 2.56-18.432 9.728-22.528 19.456-3.584 9.728-2.56 20.48 3.584 29.184l1.024 1.536 1.536 1.536 400.896 440.832c9.216 10.24 23.04 16.384 36.864 16.384s27.648-6.144 36.864-16.384c4.096-4.096 390.656-429.568 398.848-438.784 8.192-8.704 10.752-21.504 7.168-32.768-4.096-12.8-14.848-20.992-28.672-22.528v0.512c-2.56-0.512-5.12-0.512-8.192-0.512l-86.528-0.512v-378.88zM650.24 0h120.832v345.6c0 18.944 15.36 34.304 34.304 34.304H860.16c-5.632 6.144-12.288 13.312-19.456 20.992l-328.192 360.96-347.648-382.464H220.16c18.944 0 34.304-15.36 34.304-34.304V0h120.832v336.896c0 24.064 19.456 43.008 43.008 43.008h188.928c23.552 0 43.008-19.456 43.008-43.008V0z m250.88 335.872c1.024-1.536 2.56-3.584 4.608-5.12-1.024 1.536-2.56 3.072-4.608 5.12z"  horiz-adv-x="1024" />

    
    <glyph glyph-name="huaban" unicode="&#58640;" d="M258.642226 679.652164a16.133574 16.133574 0 0 0-11.25769 27.382083l77.472378 78.050872a15.940743 15.940743 0 0 0 22.524563 0.918246c0.257109-0.229561 0.495853-0.468305 0.734597-0.716232a16.142757 16.142757 0 0 0 0-22.69903l-78.050873-78.050873a15.545897 15.545897 0 0 0-11.422975-4.885066z m-44.075786-44.268618a16.702887 16.702887 0 0 0-11.257691 4.499403 16.124392 16.124392 0 0 0 0 22.69903l6.565456 6.565456a15.949925 15.949925 0 0 0 22.542928 0.146919l0.156102-0.146919a16.142757 16.142757 0 0 0 0-22.69903l-6.565456-6.565456a16.142757 16.142757 0 0 0-11.441339-4.664687zM721.943023 659.955797l-3.562793-156.817977L516.972249 318.94694400000003zM721.943023 659.955797L516.972249 318.94694400000003l62.091765 262.61823zM691.934758 610.058333l1.689572-29.264486-24.572251-8.622326zM691.934758 610.058333l-24.948732-12.001469 3.002663-25.885343zM516.972249 318.94694400000003L315.472444 503.13782l-3.562793 156.817977z m-62.082582 263.536475l62.082582-262.618229-205.062598 340.090607zM364.809778 572.171521l-24.572251 8.622326 1.689571 29.264486zM364.809778 572.171521l3.002663 25.885343-25.885343 12.001469zM644.479827 730.669887L684.092941 565.229585 516.972249 318.94694400000003zM644.479827 730.669887L516.972249 318.94694400000003l-3.369961 292.800961zM626.656681 673.646838l10.504729-32.827279-27.942212-23.63564zM626.656681 673.646838l-28.511524-18.759757 11.074041-37.510331zM1321.943035 525.093072l2.846561-11.817821-40.953751-60.35628 5.05035 33.332314zM516.972249 318.94694400000003L349.851558 565.229585l39.576383 165.440302zM520.305481 611.747905L516.972249 318.94694400000003 389.382029 730.669887zM424.642658 617.1839190000001L396.682081 640.819559l10.504729 32.827279zM424.642658 617.1839190000001l11.064859 37.519513-28.511524 18.750575zM496.293359 454.939111L516.972249 318.94694400000003 349.851558 565.229585l11.624988 48.207892zM516.972249 782.24774L423.145918 623.749374 516.972249 318.94694400000003zM516.972249 782.24774v-463.300796l94.6803 301.432469zM516.972249 706.474117l-34.507668-49.897464L516.972249 614.557736zM516.972249 706.474117l32.64363-49.897464L516.972249 614.557736zM2234.835222 813.660921H820.222845L762.391739 873.043861H271.460934L22.037893 615.705543l490.930806-494.934355L612.534064 219.80397100000005l1622.301158 0.541765c126.479143-1.625295 230.204161 124.348813 238.394911 275.216559 8.980442 165.366843-99.115426 318.906682-238.394911 318.098626zM105.175846 615.705543L303.131224 813.660921h415.708129l197.955377-197.955378L512.968699 211.907059zM1880.906654 584.4668300000001q-8.365217-63.597687-54.25913-103.210801-44.075787-37.537878-101.833433-37.537879h-146.129598l-12.37795-94.349731h-86.939489l25.114016 191.27055h241.415939a46.646874 46.646874 0 0 1 31.679472 12.130024q13.828778 12.130024 16.454961 32.193689t-8.043832 31.642742q-10.688378 11.606624-28.566619 11.606624H1516.023416L1586.14983 725.206326h175.825659q57.427077 0 91.705184-37.519513 35.56365-39.622296 27.225981-103.219983z m-535.998297-235.070863L1394.24569 725.206326h86.948672l-49.337333-375.837907z m-222.444987-5.729853q-21.064553 0-36.518626 42.753514L963.891545 725.206326h94.42319l82.642101-232.48141L1277.701964 725.206326H1372.777109l-204.034163-339.346828q-25.24257-42.239296-46.288758-42.239296zM2010.232358 547.5166280000001H2257.047582v-221.554288h-331.27545V725.206326H2257.047582v-36.19724h-246.815224zM2172.56899 362.15958V511.328571h-162.336632v-149.168991z"  horiz-adv-x="3222" />

    
    <glyph glyph-name="zhuanfa_" unicode="&#58983;" d="M377.7 598.5L486.2 707v-495.6c0-21.7 17.6-39.3 39.3-39.3 21.7 0 39.3 17.6 39.3 39.3V706.2l107.7-107.7c15.4-15.4 40.3-15.4 55.6 0 15.4 15.4 15.4 40.3 0 55.6l-166.8 167c-9.8 9.8-23.5 12.7-36.2 9.9-12.7 2.8-26.3-0.1-36.2-9.9L322 654.2c-15.4-15.4-15.4-40.3 0-55.6 15.4-15.4 40.3-15.4 55.7-0.1z m527.8-85.4h-105v-78.7H853c14.5 0 26.2-11.7 26.2-26.2V41c0-14.5-11.7-26.2-26.2-26.2H171c-14.5 0-26.2 11.7-26.2 26.2V408.2c0 14.5 11.7 26.2 26.2 26.2h52.5v78.7h-105c-29 0-52.5-23.5-52.5-52.5v-472.1c0-29 23.5-52.5 52.5-52.5h786.9c29 0 52.5 23.5 52.5 52.5V460.6c0 29-23.5 52.5-52.4 52.5z"  horiz-adv-x="1024" />

    
    <glyph glyph-name="yinzhang" unicode="&#59000;" d="M512 384m-512 0a512 512 0 1 1 1024 0 512 512 0 1 1-1024 0ZM392.021 310.364H287.336c-46.798 0-84.738-37.924-84.738-84.726a87.975 87.975 0 0 1 25.79-62.231 87.988 87.988 0 0 1 62.236-25.788h446.25c47.523 0 86.06 38.529 86.06 86.043a86.118 86.118 0 0 1-25.012 61.306 85.98 85.98 0 0 1-61.143 25.396H634.355c-28.862 0-52.257 23.406-52.257 52.256a50.985 50.985 0 0 0 22.884 43.312c6.021 3.812 11.81 8 17.315 12.525-98.433 20.431-168.987 107.147-168.987 207.669a211.091 211.091 0 0 0 21.654 93.492c-67.915-15.434-119.847-70.248-131.618-138.904-11.759-68.632 18.96-137.612 77.856-174.783a51.015 51.015 0 0 0 23.068-43.312c0.005-28.848-23.39-52.255-52.249-52.255zM754.483 35.087c19.028 0 34.45 15.433 34.45 34.464 0 19.032-15.421 34.451-34.45 34.451H271.89c-19.029 0-34.449-15.419-34.449-34.451 0-19.031 15.42-34.464 34.449-34.464h482.593zM622.489 418.346c39.92 32.713 63.027 81.613 62.985 133.221 0.057 52.442-23.797 102.028-64.764 134.756a172.262 172.262 0 0 1-145.747 33.294c-28.94-58.894-28.98-127.876-0.121-186.809a212.155 212.155 0 0 1 147.647-114.462z"  horiz-adv-x="1024" />

    
    <glyph glyph-name="youjian" unicode="&#59001;" d="M512 384m-512 0a512 512 0 1 1 1024 0 512 512 0 1 1-1024 0ZM804.79 559.583a191.612 191.612 0 0 0-56.335-33.543 20.242 20.242 0 0 0 3.821-0.072 20.302 20.302 0 0 0 13.288-7.84 20.123 20.123 0 0 0 3.883-14.893 20.044 20.044 0 0 0-7.806-13.271l-128.609-97.195 128.521-128.522c7.479-7.917 7.32-20.347-0.347-28.074-7.688-7.724-20.116-7.953-28.079-0.526L600.525 368.246l-57.199-43.148c-15.328-10.737-35.733-10.737-51.063 0l-56.774 43.075-114.816-114.742c97.123 21.698 194.708-34.527 224.609-129.445h136.185c77.97 0.095 141.187 63.222 141.371 141.197V490.899a139.845 139.845 0 0 1-18.048 68.684zM403.064 392.841L274.457 489.96a19.912 19.912 0 0 0-7.827 13.282c-1.475 10.936 6.099 21.055 17.021 22.724a20.002 20.002 0 0 0 14.817-4.007l218.39-164.695h1.107c0.45-0.073 0.913-0.073 1.362 0L737.049 521.7c-94.861-29.422-196.574 18.422-234.313 110.398H341.02c-77.971-0.086-141.184-63.226-141.369-141.199v-225.716a139.773 139.773 0 0 1 19.578-71.494 192.304 192.304 0 0 0 54.801 42.724c-7.426 7.915-7.196 20.282 0.513 27.918l128.521 128.51zM545.282 123.985c-29.901 94.918-127.485 151.141-224.61 129.445l-17.703-17.701c-7.876-7.865-20.637-7.865-28.513 0l-0.511 0.594a192.208 192.208 0 0 1-54.716-42.549c25.373-43.2 71.701-69.744 121.791-69.79l204.262 0.001zM737.813 521.96a19.926 19.926 0 0 0 10.644 3.749 191.405 191.405 0 0 1 56.333 33.533c-24.857 44.842-72.05 72.723-123.322 72.857H502.734c29.621-71.869 99.716-118.747 177.455-118.648a191.46 191.46 0 0 1 57.624 8.509z"  horiz-adv-x="1024" />

    
    <glyph glyph-name="yonghushezhi" unicode="&#59002;" d="M512 384m-512 0a512 512 0 1 1 1024 0 512 512 0 1 1-1024 0ZM584.961 166.828a41.643 41.643 0 0 1 24.946-38.155c-7.019-14.662-4.261-32.1 6.905-43.911l3.363-3.36c11.517-11.508 28.943-14.697 43.805-8.033 6.642-15.249 21.749-25.078 38.394-24.931 16.622-0.087 31.718 9.714 38.384 24.931 14.963-6.849 32.601-3.629 44.188 8.033l3.36 3.36a39.276 39.276 0 0 1 8.035 43.817 41.656 41.656 0 0 1 24.932 38.15c0 16.549-9.789 31.523-24.932 38.149 6.664 14.856 3.472 32.298-8.035 43.814l-3.36 3.461c-11.528 11.504-28.96 14.71-43.814 8.033a41.472 41.472 0 0 1-38.005 24.93c-16.514-0.011-31.441-9.799-38.021-24.93-14.857 6.677-32.288 3.472-43.815-8.033l-3.353-3.363a39.232 39.232 0 0 1-8.03-43.813c-15.158-6.623-24.947-21.6-24.947-38.149z m78.558 29.662l0.182-0.476a30.065 30.065 0 0 0 9.338 9.344 55.351 55.351 0 0 0 29.714 9.335c35.489 0.098 62.67-39.88 38.66-77.236a29.703 29.703 0 0 0-9.341-9.342 55.407 55.407 0 0 0-29.615-9.345c-35.853 0.001-62.672 39.783-38.938 77.72zM207.424 389.078c15.074-83.513 66.377-156.058 140.104-198.104 11.238-6.413 16.462-19.813 12.521-32.13-17.662-23.539-26.804-65.382-30.736-87.989a13.79 13.79 0 0 1 3.061-11.229 13.781 13.781 0 0 1 10.584-4.838l258.072 0.653h1.776a2.244 2.244 0 0 1 1.997 1.426 2.204 2.204 0 0 1-0.509 2.394 30.454 30.454 0 0 0-2.434 2.058l-3.725 3.558a66.259 66.259 0 0 0-19.523 47.178v4.019a69.161 69.161 0 0 0-21.617 50.249 69.218 69.218 0 0 0 21.617 50.25v4.016a66.31 66.31 0 0 0 19.523 47.636l3.362 3.364a66.342 66.342 0 0 0 47.165 19.521h4.014a68.766 68.766 0 0 0 50.073 21.568 66.623 66.623 0 0 0 25.584-5.138c6.616-2.942 14.382-0.243 17.745 6.169a284.359 284.359 0 0 1 29.516 136.558c-3.593 96.011-55.077 183.833-137.092 233.888-82.029 50.045-183.677 55.657-270.713 14.941 30.35-61.778 29.588-134.298-2.029-195.434-31.633-61.138-90.375-103.658-158.336-114.584z m199.318 8.677c3.857 3.93 9.122 6.131 14.62 6.178a20.641 20.641 0 0 0 17.231-9.34 18.701 18.701 0 0 0 20.25 4.854 18.678 18.678 0 0 0 12.167-16.913c0.064-21.917 16.83-40.188 38.662-42.12a47.45 47.45 0 0 1 27.183 42.786 20.65 20.65 0 0 0 10.995 18.313 20.662 20.662 0 0 0 21.325-1.22 18.9 18.9 0 0 0 5.044 0.749c10.319 0 18.679-8.374 18.679-18.689-0.111-36.338-24.884-67.971-60.147-76.776-27.47-15.387-61.039-15.063-88.197 0.868a88.648 88.648 0 0 0-43.789 76.57 20.734 20.734 0 0 0 5.977 14.74zM532.752 305.577c35.253 8.853 59.988 40.521 60.063 76.873 0 10.316-8.372 18.688-18.689 18.688a19.173 19.173 0 0 1-5.041-0.752 20.647 20.647 0 0 0 9.154-17.103c0.058-32.221-17.348-61.982-45.487-77.706zM489.509 335.843a46.653 46.653 0 0 1 20.261 4.574c-21.847 1.934-38.612 20.201-38.673 42.119a18.657 18.657 0 0 1-12.157 16.913 18.697 18.697 0 0 1-20.252-4.854 20.525 20.525 0 0 0 3.46-11.393c0.049-26.142 21.218-47.311 47.361-47.359zM365.76 503.66c31.617 61.134 32.38 133.655 2.029 195.435-100.656-47.177-164.95-148.319-164.95-259.485a287.937 287.937 0 0 1 4.584-50.53c67.962 10.924 126.704 53.444 158.337 114.58z"  horiz-adv-x="1024" />

    
    <glyph glyph-name="yonghu" unicode="&#59003;" d="M512 384m-512 0a512 512 0 1 1 1024 0 512 512 0 1 1-1024 0ZM452.296 133.241H734.69a90.826 90.826 0 0 1 64.254 26.628 90.807 90.807 0 0 1 26.626 64.25V485.841a90.86 90.86 0 0 1-26.626 64.266 90.877 90.877 0 0 1-64.255 26.626H546.366a90.875 90.875 0 0 0-58.84 21.613l-7.664 6.555a124.957 124.957 0 0 1-80.978 29.545H291.978c-50.169 0.136-90.952-40.377-91.148-90.549v-217.261a200.286 200.286 0 0 0 173.275-34.878c49.231-37.858 78.117-96.415 78.191-158.517z m80.893 184.446a107.826 107.826 0 0 0 49.791 32.472 6.135 6.135 0 0 1 4.046 4.548 6.145 6.145 0 0 1-1.896 5.795c-23.519 21.615-31.381 55.464-19.78 85.232 11.614 29.778 40.296 49.386 72.251 49.386s60.637-19.608 72.238-49.386c11.598-29.768 3.75-63.617-19.78-85.232a6.124 6.124 0 0 1 2.063-10.345 109.864 109.864 0 0 0 50.23-32.47 92.34 92.34 0 0 0 15.246-24.902 59.858 59.858 0 0 0 4.743-21.28c-1.188-11.395-8.888-21.052-19.732-24.719a136.947 136.947 0 0 0-33.512-9.487 453.659 453.659 0 0 0-142.832 0 136.704 136.704 0 0 0-33.593 9.487 29.264 29.264 0 0 0-19.729 24.985 78.343 78.343 0 0 0 20.246 45.916zM617.529 275.293a6.34 6.34 0 0 1 2.492-6.796l14.815-10.259a6.368 6.368 0 0 1 7.239 0l14.646 10.158a6.404 6.404 0 0 1 2.494 6.994l-14.036 47.896a6.364 6.364 0 0 0 0.77 5.246l2.597 3.973a6.378 6.378 0 0 1 1.026 3.791v0.516c-0.174 3.272-2.823 5.89-6.114 6.023H631.48c-3.289-0.136-5.944-2.751-6.111-6.023v-0.516a6.297 6.297 0 0 1 1.038-3.791l2.663-4.06a6.37 6.37 0 0 0 0.867-5.085l-12.408-48.067zM452.296 133.241c0 110.561-89.632 200.207-200.207 200.207a201.019 201.019 0 0 1-51.688-6.712v-102.519a90.856 90.856 0 0 1 26.59-64.329 90.842 90.842 0 0 1 64.289-26.649l161.016 0.002z"  horiz-adv-x="1024" />

    
    <glyph glyph-name="xunzhang" unicode="&#59004;" d="M512 384m-512 0a512 512 0 1 1 1024 0 512 512 0 1 1-1024 0ZM480.48 714.406c0 15.729-12.756 28.489-28.499 28.489h-88.715a70.005 70.005 0 0 1-70.023-70.205c0-41.525 7.561-82.712 22.329-121.525l14.398-37.895c104.358 93.564 262.073 94.744 367.808 2.736l13.702 31.919a327.276 327.276 0 0 1 26.444 128.973c0 36.228-29.378 65.604-65.604 65.604h-93.136c-15.742 0-28.501-12.756-28.501-28.488v-24.387c0.17-18.218-13.758-33.479-31.919-34.95a33.484 33.484 0 0 0-27.428 8.396 33.451 33.451 0 0 0-10.856 26.556v24.777zM580.402 186.484c-59.076-33.936-99.833-92.568-111.071-159.758a280.195 280.195 0 0 1 46.231-3.834c115.301-0.506 218.659 71.01 258.824 179.109-63.735 24.128-134.91 18.443-193.984-15.517zM520.42 354.569c-31.042 0-56.209-25.15-56.209-56.197 0.265-30.935 25.277-55.948 56.209-56.222 31.048 0 56.217 25.179 56.217 56.222-0.004 31.047-25.171 56.197-56.217 56.197zM697.78 506.557l-0.099 0.292c-105.795 91.94-263.503 90.689-367.809-2.931l0.003-0.095c-57.948-52.363-90.925-126.877-90.688-204.977-0.526-134.905 96.998-250.242 230.123-272.119a227.57 227.57 0 0 0 111.073 159.755c59.075 33.964 130.257 39.647 193.98 15.519a278.18 278.18 0 0 1 17.231 96.847c0.236 79.543-33.977 155.306-93.814 207.709z m-83.003-263.686c-21.204-34.548-60.006-54.28-100.42-51.053-55.986 4.469-99.137 51.22-99.137 107.376 0 56.169 43.148 102.902 99.137 107.377 40.408 3.223 79.213-16.49 100.42-51.058 21.193-34.542 21.193-78.08 0-112.642z"  horiz-adv-x="1024" />

    
    <glyph glyph-name="xuexiao" unicode="&#59005;" d="M512 384m-512 0a512 512 0 1 1 1024 0 512 512 0 1 1-1024 0ZM521.505 640.992c12.33-4.957 44.317-16.379 56.547-6.369 10.456 8.326 34.126 5.576 48.917 2.827a7.998 7.998 0 0 1 6.579 2.278 7.936 7.936 0 0 1 2.28 6.592 242.6 242.6 0 0 0 2.666 53.18 7.986 7.986 0 0 1-4.523 8.415c-17.722 8.238-53.613 4.25-66.905-3.372-10.015-5.761-29.964-3.73-41.656-1.771a7.911 7.911 0 0 1-6.168-1.592 4.672 4.672 0 0 1-2.521 0.798c-2.604 0-4.732-2.095-4.784-4.707v-60.34a140.496 140.496 0 0 0 9.481-4.972l0.087 9.033zM785.602 348.979h-94.646c-8.861 0-16.034 7.187-16.034 16.056V454.27a48.278 48.278 0 0 1-17.729 37.492l-64.876 52.288c19.479-62.42-3.048-130.296-55.968-168.68-52.915-38.396-124.433-38.731-177.724-0.867v-9.823c0-8.857-7.188-16.049-16.045-16.049h-94.651c-26.378-0.146-47.751-21.469-47.938-47.851v-193.731c0-26.624 21.586-48.212 48.214-48.212h173.873a32.083 32.083 0 0 1 22.747 9.367 32.054 32.054 0 0 1 9.415 22.709V141.69c0 33.528 27.185 60.714 60.714 60.714 35.486 0 64.255-28.771 64.255-64.259v-47.233c0-17.712 14.357-32.074 32.076-32.074h174.319c26.625 0 48.209 21.587 48.209 48.21V300.78c0 26.616-21.586 48.199-48.211 48.199zM511.766 636.481v-34.742L376.341 491.665a48.222 48.222 0 0 1-17.718-37.305v-79.755c46.55-32.857 107.545-36.972 158.098-10.683 50.554 26.267 82.207 78.577 82.063 135.549a152.178 152.178 0 0 1-6.644 44.307l-70.893 56.896v30.85a146.553 146.553 0 0 1-9.481 4.957z m49.448-191.602c0-24.483-19.852-44.306-44.317-44.306-24.472 0-44.309 19.822-44.309 44.306 0 24.409 19.737 44.21 44.133 44.308h0.176c24.466 0 44.317-19.837 44.317-44.308z"  horiz-adv-x="1024" />

    
    <glyph glyph-name="xinxi" unicode="&#59006;" d="M512 384m-512 0a512 512 0 1 1 1024 0 512 512 0 1 1-1024 0ZM653.998 458.396c-35.295 64.941-32.334 143.896 7.716 206.02a318.708 318.708 0 0 1-143.199 35.928l-4.21-0.085c-110.009-0.2-212.101-57.127-269.895-150.474-57.793-93.342-63.085-209.872-13.975-308.051 0.148-0.354 0.148-0.777 0-1.123l-28.915-82.267c-5.414-15.359-2.192-32.429 8.423-44.795 10.632-12.357 27.059-18.133 43.1-15.162l90.796 17.491a1.33 1.33 0 0 0 1.05 0 316.812 316.812 0 0 1 170.03-49.823c9.471 0 19.37 0.436 29.348 1.313 151.576 13.729 272.019 132.854 287.031 283.883v1.137c-74.056 0.445-142.007 41.07-177.3 106.008z m-268-156.792l0.259 0.097c-10.233-0.053-18.643 8.063-18.929 18.269a17.426 17.426 0 0 0 4.859 12.859 17.541 17.541 0 0 0 12.672 5.402H386c10.146 0 18.361-8.2 18.361-18.31-0.004-10.112-8.216-18.317-18.363-18.317z m253.107 0.094h-63.543l-8.757-50.353c-1.771-9.944-11.284-16.569-21.261-14.815-9.975 1.771-16.624 11.265-14.854 21.197l7.805 43.707H458.48l-8.771-50.345c-1.759-9.95-11.275-16.578-21.244-14.814-9.976 1.758-16.628 11.246-14.857 21.196l28.738 162.572h-57.233c-10.135 0-18.36 8.201-18.36 18.311 0 10.108 8.226 18.309 18.36 18.309h63.542l8.771 50.348c1.76 9.938 11.275 16.578 21.246 14.815 9.974-1.759 16.626-11.252 14.855-21.199l-7.792-43.706h80.015l8.756 50.346c1.822 9.962 11.399 16.576 21.384 14.766h0.447c9.982-1.77 16.646-11.271 14.888-21.231l-10.691-58.212a17.406 17.406 0 0 0-2.453-13.802l-16.031-90.471h57.048c10.135 0 18.362-8.188 18.362-18.311 0.006-10.123-8.22-18.308-18.355-18.308z m0.435 118.517h-1.919c-10.146 0-18.359 8.2-18.359 18.312 0 10.109 8.213 18.313 18.359 18.313h1.919c10.145 0 18.36-8.2 18.36-18.313-0.002-10.112-8.215-18.312-18.36-18.312zM479.095 415.894l-14.491-82.248h79.57l14.408 82.248zM664.528 662.661c-39.035-61.174-41.926-138.912-7.534-202.851 34.404-63.95 100.629-103.951 172.818-104.382 12.368 126.809-53.067 248.463-165.284 307.233z"  horiz-adv-x="1024" />

    
    <glyph glyph-name="tupian" unicode="&#59008;" d="M512 384m-512 0a512 512 0 1 1 1024 0 512 512 0 1 1-1024 0ZM785.127 630.342H237.53c-19.426 0-35.322-15.896-35.322-35.323v-277.124c14.552 2.982 29.906 4.604 45.792 4.604 65.709 0 122.52-27.322 149.602-66.998 2.516 11.886 13.558 21.414 25.961 21.414 14.134 0 26.5-12.366 26.5-26.499-0.002-14.131-12.368-26.494-26.5-26.494-4.454 0-8.732 1.23-12.505 3.355a87.584 87.584 0 0 0 3.442-24.278c0-17.693-5.363-34.486-14.979-49.593h385.604c19.438 0 35.334 15.896 35.334 35.334V595.019c0 19.426-15.896 35.323-35.332 35.323z m-345.669-70.79c24.733 0 44.159-19.438 44.159-44.173 0-24.721-19.425-45.911-44.159-45.911-24.732 0-44.16 19.425-44.16 44.147 1.765 26.497 21.205 45.937 44.16 45.937z m72.425-335.629c-14.132 0-26.499 12.362-26.499 26.494 0 14.133 12.367 26.499 26.499 26.499 14.131 0 26.498-12.366 26.498-26.499 0-14.131-12.367-26.494-26.498-26.494z m88.319 0c-14.132 0-26.497 12.362-26.497 26.494 0 14.133 12.365 26.499 26.497 26.499 14.131 0 26.499-12.366 26.499-26.499 0-14.131-12.368-26.494-26.499-26.494z m130.716 123.65H308.745c-5.295 0-10.603 3.534-14.132 7.076-5.294 7.06-3.531 19.426 3.532 24.721l60.055 44.157c12.367 8.838 26.5 8.838 38.865 1.767l65.362-40.619 141.319 88.318c14.118 8.829 31.792 7.062 42.382-3.526l97.16-91.864c3.528-3.526 5.307-8.838 5.307-12.362-0.001-10.593-7.077-17.668-17.677-17.668zM411.058 227.278c-8.193 4.615-13.995 13.461-13.995 23.139 0 1.729 0.188 3.429 0.538 5.085C370.52 295.178 313.709 322.5 248 322.5c-15.887 0-31.24-1.621-45.792-4.604v-129.153c0-19.438 15.896-35.334 35.322-35.334h161.994C409.137 168.514 414.5 185.307 414.5 203a87.578 87.578 0 0 1-3.442 24.278z"  horiz-adv-x="1024" />

    
    <glyph glyph-name="wanggou" unicode="&#59009;" d="M512 384m-512 0a512 512 0 1 1 1024 0 512 512 0 1 1-1024 0ZM219.607 529.886l-19.372-416.328a61.98 61.98 0 0 1 16.551-45.921 62.05 62.05 0 0 1 44.66-19.737h341.296c-38.716 49.167-45.951 116.129-18.633 172.436 27.333 56.302 84.398 92.061 146.983 92.072a162.792 162.792 0 0 0 90.896-27.821l-11.316 245.301c-0.945 26.438-22.512 47.479-48.978 47.755H668.95a37.082 37.082 0 0 1-29.301-14.358 798.57 798.57 0 0 1-72.063-111.757C547 412.66 524.271 372.312 505.64 339.669a6.107 6.107 0 0 1 0.11-7.438 6.126 6.126 0 0 1 7.218-1.836l60.458 20.961c11.688 4.313 24.781-0.384 31.07-11.125a24.62 24.62 0 0 0 1.384-20.715 24.678 24.678 0 0 0-14.916-14.438C538.655 286.53 459.172 259.35 452.5 256.94l-1.863-0.183-1.672-0.562a23.732 23.732 0 0 0-5-0.548c-1.56 0-3.107 0.166-4.643 0.469h-1.387l-2.971 0.914-1.671 0.755-2.412 1.382-1.574 1.03a23.23 23.23 0 0 0-2.415 2.024l-0.928 0.833a19.737 19.737 0 0 0-7.234 16.604l-32.355 145.516c-2.92 12.044 3.164 24.428 14.465 29.495a24.713 24.713 0 0 0 20.795-1.014 24.772 24.772 0 0 0 12.688-16.521l16.314-73.537a6.113 6.113 0 0 1 5.015-4.851 6.12 6.12 0 0 1 6.303 2.985c18.551 32.742 41.644 73.458 62.415 112.501a840.673 840.673 0 0 0 51.019 84.115 12.357 12.357 0 0 1 0.709 12.726 12.315 12.315 0 0 1-10.916 6.563h-296.6c-26.466-0.267-48.03-21.311-48.975-47.75zM386.63 611.86a23.585 23.585 0 0 1 22.453 9.372c27.139 32.934 67.526 52.086 110.199 52.223a143.345 143.345 0 0 0 110.542-51.483 23.586 23.586 0 0 1 22.425-8.905 23.603 23.603 0 0 1 18.495 15.507 23.56 23.56 0 0 1-4.852 23.646 190.065 190.065 0 0 1-146.076 68.25 189.924 189.924 0 0 1-146.995-69.278 23.556 23.556 0 0 1-4.959-23.823 23.602 23.602 0 0 1 18.768-15.509zM813.396 67.637a62.046 62.046 0 0 1 16.563 45.922l-8.343 171.572a162.708 162.708 0 0 1-90.523 27.275c-62.582-0.015-119.651-35.771-146.985-92.073-27.316-56.305-20.084-123.267 18.636-172.436h166.008a62.017 62.017 0 0 1 44.644 19.74z"  horiz-adv-x="1024" />

    
    <glyph glyph-name="anquan" unicode="&#59010;" d="M512 384m-512 0a512 512 0 1 1 1024 0 512 512 0 1 1-1024 0ZM816.007 621.814a53.195 53.195 0 0 1-33.027 11.162h-3.262c-0.636 0-8.445-0.458-20.593-0.458a500.215 500.215 0 0 0-96.799 9.073c-48.166 10.162-103.69 56.787-119.93 65.95a55.873 55.873 0 0 1-53.979 0c-1.998-1.175-60.229-54.424-117.114-66.042a507.552 507.552 0 0 0-97.518-9.069c-12.155 0-19.96 0-20.685 0.45h-3.261a53.409 53.409 0 0 1-32.576-11.066 38.35 38.35 0 0 1-15.326-30.117v-102.965c0-381.011 293.018-430.085 305.442-431.99 2.852-0.398 5.736-0.61 8.621-0.639a53.655 53.655 0 0 1 8.619 0.639c1.541 0 7.346 1.179 16.328 3.354-42.933 69.337-41.972 157.226 2.446 225.617h-0.551l-6.792 3.534a28.951 28.951 0 0 1-27.219 0l-45.356-24.135a28.962 28.962 0 0 0-30.502 2.104 28.948 28.948 0 0 0-11.593 28.287l8.53 50.801a28.945 28.945 0 0 1-8.442 25.583l-37.013 35.836a28.925 28.925 0 0 0-7.445 29.653 28.943 28.943 0 0 0 23.322 19.786l50.989 7.528a28.93 28.93 0 0 1 21.755 15.875l22.686 46.266a28.96 28.96 0 0 0 25.945 16.122 28.916 28.916 0 0 0 25.939-16.122l23.412-45.992a28.915 28.915 0 0 1 21.858-15.789l50.991-7.256a28.935 28.935 0 0 0 22.896-19.643 28.946 28.946 0 0 0-7.02-29.345l-36.752-36.287a29.034 29.034 0 0 1-8.618-18.864c62.779 36.235 139.764 37.679 203.845 3.808a605.42 605.42 0 0 1 13.517 131.359V591.791a38.694 38.694 0 0 1-15.768 30.023zM614.334 353.563a29.513 29.513 0 0 1 0-6.8l9.071-50.716a28.97 28.97 0 0 0-11.402-28.372 28.957 28.957 0 0 0-30.506-2.286l-38.926 20.325c-44.421-68.392-45.367-156.279-2.448-225.616 55.073 13.066 228.338 72.75 278.056 297.276-64.08 33.871-141.075 32.435-203.845-3.811z"  horiz-adv-x="1024" />

    
    <glyph glyph-name="aixin" unicode="&#59011;" d="M512 384m-512 0a512 512 0 1 1 1024 0 512 512 0 1 1-1024 0ZM810.078 356.714a274.276 274.276 0 0 1 23.668 111.085c0 100.089-68.254 203.533-182.503 203.533h-8.804c-39.923-62.236-43.123-141.172-8.35-206.425 34.767-65.252 102.072-106.622 175.989-108.193zM549.122 646.614a76.113 76.113 0 0 0-70.366 0 219.804 219.804 0 0 1-103.167 24.891c-116.717 0-179.601-105.537-179.601-204.404 0-135.265 100.613-257.966 299.036-364.734a42.219 42.219 0 0 1 39.762 0c142.57 76.681 234.932 161.648 275.293 254.35-111.185 2.294-200.118 93.108-200.093 204.318a203.377 203.377 0 0 0 32.193 110.036 214.509 214.509 0 0 1-93.057-24.457z m66.673-240.203a22.265 22.265 0 0 0 20.428-10.682 22.271 22.271 0 0 0 0-23.062 22.247 22.247 0 0 0-20.428-10.67h-79.162v-79.161a22.242 22.242 0 0 0-10.685-20.432 22.257 22.257 0 0 0-23.044 0 22.235 22.235 0 0 0-10.687 20.432V362h-79.163c-11.729 0.734-20.852 10.459-20.852 22.212 0 11.742 9.124 21.464 20.852 22.199h79.163v79.162a22.231 22.231 0 0 0 10.687 20.43 22.204 22.204 0 0 0 23.044 0 22.24 22.24 0 0 0 10.685-20.43v-79.162h79.162z"  horiz-adv-x="1024" />

    
    <glyph glyph-name="bofang" unicode="&#59012;" d="M512 384m-512 0a512 512 0 1 1 1024 0 512 512 0 1 1-1024 0ZM453.973 590.939l-46.854 76.575c-6.034 10.537-19.969 14.476-31.133 8.792-10.272-6.654-13.512-19.582-7.479-29.867l34.081-55.458 51.385-0.042zM639.376 646.283c5.9 10.273 2.685 23.099-7.469 29.788-5.357 2.745-11.666 3.365-17.504 1.716-5.855-1.65-10.759-5.432-13.637-10.514l-47.147-76.413 51.591-0.042 34.166 55.465zM636.501 225.841c-0.084-53.688 24.641-104.545 67.246-138.361h-15.199l0.003-0.003h39.943c49.7 0 89.998 42.13 89.998 94.09v222.46c-100.524-0.049-181.994-79.807-181.991-178.186zM791.309 551.512c-17.436 17.089-41.088 26.706-65.751 26.729H295.009c-24.698 0.025-48.401-9.574-65.873-26.663-17.461-17.095-27.267-40.29-27.24-64.46v-308.606c0-24.154 9.812-47.329 27.276-64.4 17.463-17.071 41.151-26.654 65.84-26.632h408.735c-42.605 33.816-67.33 84.675-67.246 138.361-0.003 98.379 81.467 178.137 181.991 178.187h0.001v83.091c0.023 24.138-9.757 47.304-27.184 64.393z m-340.37-336.196a15.204 15.204 0 0 0-15.005-0.052c-4.646 2.625-7.513 7.497-7.539 12.78V425.09c0.025 5.275 2.894 10.147 7.539 12.771a15.204 15.204 0 0 0 15.005-0.048l171.275-98.481c4.649-2.631 7.525-7.521 7.525-12.808 0-5.295-2.876-10.176-7.525-12.814l-171.275-98.394z"  horiz-adv-x="1024" />

    
    <glyph glyph-name="faxian" unicode="&#59013;" d="M512 384m-512 0a512 512 0 1 1 1024 0 512 512 0 1 1-1024 0ZM511.292 411.701c-19.665-0.13-35.636-15.9-36.026-35.556-0.233-19.348 16.258-36.173 35.557-35.991 19.824 0.18 35.849 15.557 35.902 35.645 0.078 19.822-15.498 35.368-35.433 35.902zM542.067 254.459c0 12.412 1.237 24.536 3.515 36.306-14.07-6.565-28.057-13.275-42.113-19.856-19.272-9.045-38.606-17.9-57.821-27.015a356281.799 356281.799 0 0 1-78.241-37.45c-6.455-3.091-12.896-6.218-19.432-9.168a44.636 44.636 0 0 0-6.297-1.925c-8.443 0.284-13.326 9.469-9.755 16.821 7.624 15.638 14.902 31.443 22.373 47.146 12.51 26.304 25.183 52.483 37.599 78.862 13.688 29.055 27.166 58.271 41.061 87.271 2.032 4.234 4.178 8.457 6.101 12.752a19.584 19.584 0 0 0 10.21 10.07c30.341 14.264 60.681 28.767 91.049 43.063l99.937 47.081c11.058 5.167 22.142 10.442 33.098 15.867 5.421 2.682 10.459 2.635 15.093-1.292 3.648-3.15 3.817-9.436 1.062-15.145a55835.1 55835.1 0 0 1-43.878-92.171c-4.574-9.613-9.134-19.223-13.701-28.837 31.021 19.839 68.046 31.408 107.85 31.408 27.439 0 53.571-5.488 77.32-15.393-4.04 21.799-10.416 43.129-19.151 63.574a310.307 310.307 0 0 1-139.645 153.375 330.456 330.456 0 0 1-54.705 23.274 287.666 287.666 0 0 1-79.703 13.621c-5.522 0.17-11.053 0-16.557 0.079a34 34 0 0 1-7.328 0 263.8 263.8 0 0 1-50.205-5.758 306.712 306.712 0 0 1-89.28-32.705 313.735 313.735 0 0 1-61.162-44.268 310.14 310.14 0 0 1-49.405-58.821 306.368 306.368 0 0 1-37.44-81.163 313.425 313.425 0 0 1-12.563-94.781 302.11 302.11 0 0 1 8.917-67.969 310.874 310.874 0 0 1 127.479-182.728 267.114 267.114 0 0 1 28.425-17.546c20.434-10.378 41.445-19.334 63.618-25.358 17.204-4.655 34.646-8.722 52.332-9.945a349.134 349.134 0 0 1 63.278 0.638 322.557 322.557 0 0 1 44.278 7.899c15.89 4.12 31.413 9.506 46.464 16.024-55.659 34.293-92.677 94.972-92.677 164.163zM713.563 139.442a316.236 316.236 0 0 1 38.547 39.736 303.525 303.525 0 0 1 48.774 82.967 319.826 319.826 0 0 1 20.452 140.227h-0.126c-0.833 10.241-2.251 20.408-4.119 30.484-23.749 9.905-49.88 15.393-77.32 15.393-39.804 0-76.83-11.57-107.85-31.407-11.229-23.624-22.466-47.253-33.677-70.872-4.284-9.026-9.047-18.001-12.525-27.229-3.479-9.24-9.954-14.231-18.632-18.126-7.211-3.216-14.364-6.521-21.506-9.853-2.276-11.768-3.515-23.892-3.515-36.306 0-69.189 37.018-129.87 92.67-164.156 4.199 1.82 8.379 3.692 12.499 5.694a311.003 311.003 0 0 1 66.328 43.448z"  horiz-adv-x="1024" />

    
    <glyph glyph-name="rongyu" unicode="&#59014;" d="M512 384m-512 0a512 512 0 1 1 1024 0 512 512 0 1 1-1024 0ZM211.995 193.414c-0.051-31.698 25.565-57.452 57.266-57.59h300c31.624 0.085 57.254 25.716 57.34 57.343v381.75c-0.137 31.602-25.739 57.169-57.34 57.255H452.657v-5.475c-0.634-57.404-38.082-107.891-92.822-125.159-54.742-17.281-114.387 2.588-147.841 49.218l0.001-357.342z m262.161 104.818a13.7 13.7 0 0 0-23.402-9.717l-31.376 31.376-31.452-31.289a13.757 13.757 0 0 0-4.318-2.9 13.436 13.436 0 0 0-5.312-1.081 13.688 13.688 0 0 0-9.455 3.981 14.127 14.127 0 0 0-2.911 4.318 13.637 13.637 0 0 0-1.069 5.312v45.063c32.895-23.004 76.65-23.004 109.544 0l-0.249-45.063z m-54.778 205.806c45.374 0 82.163-36.776 82.163-82.151a82.13 82.13 0 0 0-23.925-58.373 82.184 82.184 0 0 0-58.238-24.213v0.425c-45.374 0-82.15 36.778-82.15 82.161-0.001 45.375 36.777 82.151 82.15 82.151zM691.496 567.352l-32.2 8.31a9.977 9.977 0 0 1-8.499-1.867 9.946 9.946 0 0 1-3.782-7.836v-405.486h0.748c2.49 0.67 6.646 2.91 12.616 17.768a141.594 141.594 0 0 1 3.981 11.444l72.036 306.145c7.142 32.107-12.877 64.007-44.9 71.522zM683.109 170.76a25.878 25.878 0 0 1 12.116 10.376 66.494 66.494 0 0 1 5.063 7.801L809.25 400.713c11.409 22.271 2.688 49.554-19.492 61.086l-19.759 10.203a9.963 9.963 0 0 1-8.71 0.248 9.971 9.971 0 0 1-5.562-6.718l-73.528-294.771 0.91-0.001zM453.243 627.02v5.486H271.998c-33.056-0.087-59.831-26.86-59.917-59.917v-21.834a132.189 132.189 0 0 1 108.376-56.509c73.329 0.002 132.786 59.445 132.786 132.774z"  horiz-adv-x="1024" />

    
    <glyph glyph-name="dushu" unicode="&#59015;" d="M512 384m-512 0a512 512 0 1 1 1024 0 512 512 0 1 1-1024 0ZM529.956 376.968v-199.393c0.095-22.165 18.048-40.116 40.217-40.212 22.021 7.627 65.362 23.041 107.188 41.5 10.825 4.813 21.502 10.743 42.322 22.591a97.389 97.389 0 0 1 33.87 25.99 74.422 74.422 0 0 1 10.913 20.578V603.595c-0.083 22.168-18.041 40.116-40.213 40.213a363.306 363.306 0 0 1-35.212-7.787c21.741-55.613 16.149-118.212-15.101-169.099-31.237-50.895-84.538-84.195-143.984-89.954zM295.619 643.892c-22.169-0.083-40.117-18.045-40.214-40.212v-355.573a73.801 73.801 0 0 1 10.926-20.567c9.375-11.179 21.164-20.08 34.454-26.084 21.247-11.848 31.917-17.866 42.334-22.592 41.816-18.459 85.167-33.873 107.18-41.5 22.167 0.098 40.116 18.047 40.212 40.212V377.292c-58.731 6.585-111.096 40.047-141.752 90.578-30.668 50.518-36.15 112.418-14.869 167.556a377.521 377.521 0 0 1-38.271 8.466zM775.735 213.231a96.998 96.998 0 0 0-33.873-26.004c-20.481-11.423-31.07-17.342-41.569-22.094 11.181 0 44.369-0.683 76.871 1.527a50.862 50.862 0 0 1 29.385 10.063 48.203 48.203 0 0 1 15.485 24.309V556.615c-0.063 20.579-15.668 37.786-36.151 39.875 0.473-2.354 0.729-4.731 0.763-7.119v-355.573a74.084 74.084 0 0 0-10.911-20.567zM238.306 596.32c-20.41-2.088-35.993-19.186-36.151-39.706v-355.585a48.09 48.09 0 0 1 15.499-24.459 50.745 50.745 0 0 1 29.371-10.079c32.511-2.206 65.691-1.771 76.872-1.525-10.502 4.752-21.074 10.67-41.569 22.094a96.95 96.95 0 0 0-33.858 26 73.79 73.79 0 0 0-10.924 20.566V589.2c0.032 2.388 0.288 4.765 0.76 7.12zM689.631 636.264c-45.971-12.443-114.127-40.625-147.897-104.631a168.77 168.77 0 0 1-11.863-28.451v-126.217c59.631 5.54 113.183 38.81 144.59 89.789 31.408 50.982 37.022 113.775 15.17 169.51zM490.848 377.293h0.084V503.186a169.446 169.446 0 0 1-11.847 28.452c-33.022 62.561-98.968 90.927-144.856 103.792-21.28-55.141-15.801-117.038 14.857-167.556 30.666-50.536 83.032-83.996 141.762-90.581z"  horiz-adv-x="1024" />

    
    <glyph glyph-name="shoucang" unicode="&#59016;" d="M512 384m-512 0a512 512 0 1 1 1024 0 512 512 0 1 1-1024 0ZM768.391 493.132l-106.388 15.146a60.427 60.427 0 0 0-45.632 32.903l-45.614 91.667c17.938-45.738 1.125-97.787-40.188-124.365-41.312-26.585-95.645-20.332-129.829 14.94a60.446 60.446 0 0 0-33.254-16.837L261.193 491.44a60.394 60.394 0 0 1-48.577-41.262c-7.04-21.872-1.065-45.834 15.411-61.851l77.188-74.733a60.439 60.439 0 0 0 17.502-53.439L304.96 154.091c-3.645-22.608 5.815-45.339 24.433-58.692a60.437 60.437 0 0 1 63.438-4.345l95.021 50.503a60.465 60.465 0 0 0 56.226 0l95.282-49.739a60.421 60.421 0 0 1 87.446 63.965l-18.521 105.881a60.437 60.437 0 0 0 16.839 53.528l76.763 75.241a60.444 60.444 0 0 1 14.921 61.681c-7.097 21.726-25.832 37.594-48.417 41.018zM514.954 244.997c-35.808 0.047-64.811 29.092-64.811 64.896 0 8.346 6.764 15.096 15.108 15.096 8.348 0 15.109-6.746 15.109-15.096 0-19.11 15.494-34.595 34.595-34.595 19.106 0 34.601 15.482 34.601 34.595a15.13 15.13 0 0 0 7.545 13.089 15.162 15.162 0 0 0 15.109 0 15.104 15.104 0 0 0 7.563-13.089c-0.004-35.804-29.013-64.849-64.819-64.896zM568.482 637.553a63.933 63.933 0 0 1-4.62 7.925c-0.932 1.254-1.95 2.344-2.87 3.53-0.93 1.172-1.681 2.271-2.612 3.278a58.632 58.632 0 0 1-13.128 10.27 58.767 58.767 0 0 1-7.332 3.619 61.01 61.01 0 0 1-15.65 4.125 62.264 62.264 0 0 1-16.16 0 59.394 59.394 0 0 1-39.979-23.734 62.371 62.371 0 0 1-2.6-3.872 61.49 61.49 0 0 1-3.374-5.808l-15.652-31.98L412.86 540.5a58.387 58.387 0 0 0-3.121-5.542l-1.343-2.104-2.188-2.866a61.26 61.26 0 0 0-5.468-6.146c29.31-29.914 73.786-39.135 112.56-23.322 38.783 15.812 64.151 53.503 64.197 95.369l0.167 0.169a102.93 102.93 0 0 1-6.911 36.957l-2.271 4.538z"  horiz-adv-x="1024" />

    
    <glyph glyph-name="tianjiayonghu" unicode="&#59018;" d="M512 384m-512 0a512 512 0 1 1 1024 0 512 512 0 1 1-1024 0ZM822.487 166.921a126.154 126.154 0 0 1-36.875 89.307 126.16 126.16 0 0 1-89.255 37.008c-69.625 0-126.097-56.443-126.122-126.067-0.035-69.639 56.36-126.121 125.995-126.193 69.64-0.076 126.157 56.295 126.257 125.945z m-144.181-50.9v32.838h-33.021c-9.965 0-18.05 8.073-18.05 18.063 0 9.963 8.085 18.052 18.05 18.052h32.92v33.02c0 9.964 8.087 18.063 18.063 18.063 9.979 0 18.05-8.099 18.05-18.063v-33.02h33.021c9.979 0 18.052-8.089 18.052-18.052 0-9.988-8.072-18.063-18.052-18.063l0.089 0.185h-33.005v-33.022c0-9.962-8.089-18.049-18.063-18.049-9.968 0-18.054 8.088-18.054 18.048zM452.472 647.343a218.07 218.07 0 0 1-12.502 72.986c-140.39-20.077-244.619-140.352-244.556-282.155v-6.307c63.757-11.461 129.321 5.964 178.968 47.585 49.638 41.598 78.254 103.114 78.09 167.891zM764.74 452.375a284.676 284.676 0 0 1-103.307 205.977A284.582 284.582 0 0 1 439.49 720.33c25.99-73.28 11.083-154.857-39.168-214.197-50.236-59.354-128.24-87.528-204.81-73.98 2.208-99.91 56.703-191.328 143.531-240.791 11.118-6.378 16.281-19.655 12.417-31.878-17.596-23.415-26.614-64.813-30.566-87.467a13.616 13.616 0 0 1 3.069-11.114 13.617 13.617 0 0 1 10.464-4.787l230.064 0.564a13.742 13.742 0 0 1 12.322 8.013 13.72 13.72 0 0 1-1.978 14.565 146.431 146.431 0 0 0-30.665 112.204 146.655 146.655 0 0 0 63.071 100.79 146.58 146.58 0 0 0 117.05 20.91c6.246-1.472 12.678 1.693 15.327 7.534a283.56 283.56 0 0 1 25.122 131.679z m-195.914-28.973a88.195 88.195 0 0 0-45.906-77.306 88.12 88.12 0 0 0-130.546 77.306h-0.382a20.628 20.628 0 0 0 9.855 18.996 20.582 20.582 0 0 0 21.398 0 20.6 20.6 0 0 0 9.854-18.996 47.004 47.004 0 0 1 24.493-41.214c0.049-0.118 0.097-0.242 0.149-0.36a47.033 47.033 0 0 1 46.972 0.612c14.428 8.564 23.189 24.176 23.008 40.962a20.593 20.593 0 0 0 9.854 18.995 20.58 20.58 0 0 0 21.397 0 20.626 20.626 0 0 0 9.854-18.995z"  horiz-adv-x="1024" />

    
    <glyph glyph-name="ditu" unicode="&#59020;" d="M512 384m-512 0a512 512 0 1 1 1024 0 512 512 0 1 1-1024 0ZM668.541 550.286c0 91.579-80.921 163.99-170.377 163.99-89.45 0-168.243-72.409-168.243-163.989 0-83.053 168.243-283.258 168.243-283.258s170.377 195.943 170.377 283.257z m-232.135-8.522c0 36.21 29.81 66.022 63.885 63.897 34.089 0 63.899-27.687 63.899-63.897 0.001-34.075-27.692-63.885-63.899-63.885-34.075-0.001-63.885 27.679-63.885 63.885zM536.465 137.24l-2.086 6.267c2.602 0.977 5.204 1.955 7.828 2.953 32.305 47.239 100.146 79.776 178.623 79.776 2.938 0 5.859-0.056 8.767-0.146l-1.421 4.732c21.301 6.396 44.73 8.516 66.029 10.655h-0.001v-21.311c-3.507-0.388-7.015-0.777-10.536-1.191 11.855-2.823 23.21-6.428 33.954-10.722V394.812c0 23.429-19.165 42.599-44.715 42.599H664.294c-61.766-108.616-168.252-232.147-168.252-232.147S393.809 328.796 334.174 437.41h-87.318c-23.43 0-44.716-19.167-44.716-42.599v-298.166c0-23.418 21.286-42.586 44.716-42.586h279.69c-2.91 9.681-4.456 19.723-4.456 30.023 0 18.797 5.111 36.736 14.375 53.158z m-249.142 33.947c-19.167 8.525-36.207 21.301-55.372 34.075l12.774 17.05c17.037-12.786 36.205-23.429 53.24-34.076l-10.642-17.049z m97.972-44.718c-19.167 8.516-38.334 14.907-59.635 23.434l8.514 19.169c19.166-8.526 38.337-17.054 57.503-21.313l-6.382-21.29z m72.411-12.784c-8.524 0-17.037 2.134-27.693 4.263l4.264 21.298c8.521-2.13 19.167-2.13 27.681-4.261 10.656-2.133 21.298 0 31.957 0l2.129-21.3a116.345 116.345 0 0 0-38.338 0zM772.907 54.061c23.418 0 44.715 19.166 44.715 42.587V208.256c-10.744 4.294-22.099 7.897-33.954 10.722-15.719-1.853-31.699-4.229-49.099-9.45l-4.974 16.563a279.981 279.981 0 0 1-8.767 0.146c-78.477 0-146.318-32.537-178.623-79.776 14.561 5.541 29.818 11.773 49.661 22.609l8.525-19.169c-23.43-10.657-42.598-19.169-59.635-25.56l-4.295 12.898c-9.264-16.422-14.375-34.361-14.375-53.156 0-10.302 1.546-20.344 4.456-30.023h246.365z m-83.064 163.986l8.525-19.164c-19.169-8.525-36.207-17.051-59.637-27.694l-8.521 19.168c23.43 10.642 40.465 19.165 59.633 27.69z"  horiz-adv-x="1024" />

    
    <glyph glyph-name="fangke" unicode="&#59021;" d="M512 384m-512 0a512 512 0 1 1 1024 0 512 512 0 1 1-1024 0ZM416.015 151.804c-4.438 85.765 48.841 162.493 91.021 198.598 6.661 6.778 11.096 11.283 17.754 15.805-8.881 20.309-15.542 42.879-15.542 67.705 0 78.995 62.16 144.433 142.076 144.433 55.499 0 102.125-31.6 126.547-76.725V596.4c0 51.909-42.181 92.529-93.235 92.529H457.847c5.938-16.911 9.145-34.846 9.145-53.429 0-49.305-22.479-94.079-59.07-127.114h23.635c4.579 0 8.106-2.135 9.864-5.669 0.764-1.536 1.186-3.342 1.221-5.347 0.001-0.091 0.012-0.178 0.012-0.27 0-0.093-0.011-0.181-0.012-0.273-0.035-2.004-0.457-3.808-1.22-5.344-1.758-3.534-5.285-5.669-9.864-5.669h-53.782c-34.946-21.597-77.765-34.313-124.027-34.313-18.321 0-36.101 1.996-53.067 5.745V169.85c0-49.65 42.181-90.273 93.235-90.273h173.166c-31.09 11.284-48.847 33.849-51.068 72.227zM287.252 406.827c0 6.759 4.447 11.274 11.111 11.274h133.191c6.66 0 11.098-4.518 11.097-11.274v-0.002c0.001-6.772-4.437-11.286-11.097-11.286H298.363c-4.451 0-11.111 4.512-11.111 11.286v0.002z m88.801-90.284c0-4.651-2.096-8.235-5.569-10.021-0.632-0.324-1.31-0.591-2.027-0.791a12.861 12.861 0 0 0-3.497-0.461h-66.595c-3.94 0-7.095 1.585-9.024 4.271-1.333 1.857-2.086 4.236-2.086 7.002v0.002c0 2.837 0.788 5.269 2.182 7.146 0.063 0.085 0.119 0.177 0.185 0.259 0.024 0.029 0.052 0.057 0.077 0.087 1.951 2.398 4.964 3.794 8.667 3.794h66.595c6.659 0 11.093-4.507 11.093-11.286v-0.002h-0.001zM442.651 497.1c0-0.093-0.011-0.181-0.012-0.273 0.003 0.091 0.012 0.179 0.012 0.273zM441.419 502.717c0.764-1.536 1.185-3.342 1.221-5.347-0.036 2.005-0.456 3.811-1.221 5.347zM431.556 485.814h-53.781l-0.001-0.001 53.782 0.001c4.579-0.001 8.106 2.134 9.864 5.668-1.758-3.533-5.286-5.668-9.864-5.668zM370.483 306.521zM287.254 316.543c0-2.766 0.753-5.145 2.086-7.002-1.332 1.857-2.085 4.237-2.086 7.002zM298.365 327.831c-3.703 0-6.716-1.396-8.667-3.794 1.951 2.4 4.965 3.794 8.667 3.794zM370.483 306.521c3.474 1.786 5.569 5.37 5.569 10.021v0.001c0.001-4.651-2.095-8.235-5.569-10.022zM289.437 323.691c0.063 0.085 0.119 0.177 0.185 0.259-0.067-0.082-0.122-0.174-0.185-0.259zM298.363 418.102h133.191c6.659 0 11.096-4.517 11.097-11.274v0.001c0.001 6.757-4.437 11.274-11.097 11.274l-133.191-0.001c-6.664 0.001-11.111-4.516-11.111-11.273v-0.001c0.001 6.757 4.448 11.274 11.111 11.274zM751.233 323.322c-24.429 22.569-44.41 27.078-51.066 27.078 28.863 15.805 46.616 47.403 46.616 83.505 0 54.162-42.166 97.044-95.46 97.044-53.274 0-95.443-42.882-93.232-97.044 0-36.102 17.768-65.456 46.614-83.505h-11.091c-0.002 0-22.206 0-55.503-27.078-33.301-27.085-73.258-85.758-71.032-153.475 2.209-67.7 73.251-67.7 177.588-67.7 104.341 0 175.386 0 177.601 67.7 2.221 67.717-39.959 124.142-71.035 153.475zM287.252 497.101c0 6.77 6.66 11.284 11.111 11.284h109.555l0.002 0.001H298.363c-4.451 0-11.111-4.513-11.111-11.285zM377.771 485.813h-79.408c-4.451 0-11.111 4.516-11.111 11.286 0 6.772 6.66 11.286 11.111 11.286H407.92c36.592 33.035 59.07 77.809 59.07 127.114 0 18.583-3.205 36.519-9.145 53.429H293.913c-51.053 0-93.235-40.622-93.235-92.529v-139.155c16.966-3.75 34.746-5.745 53.067-5.745 46.263 0.001 89.081 12.718 124.026 34.314zM298.363 485.814c-4.451 0-11.11 4.515-11.111 11.286 0-6.77 6.66-11.287 11.111-11.286l79.408-0.001 0.002 0.001h-79.41z"  horiz-adv-x="1024" />

    
    </font>
</defs>
</svg>
